<?xml version="1.0" encoding="UTF-8"?>
<svg width="695px" height="226px" viewBox="0 0 695 226" version="1.1" xmlns="http://www.w3.org/2000/svg" xmlns:xlink="http://www.w3.org/1999/xlink">
    <title>Untitled 2</title>
    <g id="Page-1" stroke="none" stroke-width="1" fill="none" fill-rule="evenodd">
        <g id="stimulus-reflex-logo-with-copy" transform="translate(0.325439, 0.260745)">
            <path d="M374.254561,34.5393552 C369.720561,34.5393552 366.487561,33.8060552 364.554561,32.3393552 C362.687561,30.8726552 361.754561,28.4060552 361.754561,24.9393552 C361.754561,21.4726552 362.687561,19.0060552 364.554561,17.5393552 C366.487561,16.0726552 369.720561,15.3393552 374.254561,15.3393552 C378.787561,15.3393552 381.987561,16.0726552 383.854561,17.5393552 C385.787561,19.0060552 386.754561,21.4726552 386.754561,24.9393552 C386.754561,28.4060552 385.787561,30.8726552 383.854561,32.3393552 C381.987561,33.8060552 378.787561,34.5393552 374.254561,34.5393552 Z" id="Path" fill="#FFFFFF" fill-rule="nonzero"></path>
            <polygon id="Path" fill="#FFFFFF" fill-rule="nonzero" points="362.754561 87.7393552 362.754561 37.7393552 385.754561 37.7393552 385.754561 87.7393552"></polygon>
            <path d="M283.374561,20.7393552 C289.907561,20.7393552 295.474561,21.5060552 300.074561,23.0393552 C304.674561,24.5726552 309.241561,27.3060552 313.774561,31.2393552 L303.574561,45.7393552 C300.574561,42.9393552 297.507561,40.9393552 294.374561,39.7393552 C291.307561,38.4726552 287.874561,37.8393552 284.074561,37.8393552 C281.741561,37.8393552 279.874561,38.2060552 278.474561,38.9393552 C277.074561,39.6060552 276.374561,40.5060552 276.374561,41.6393552 C276.374561,42.3726552 277.041561,42.9393552 278.374561,43.3393552 C279.707561,43.7393552 282.041561,44.2393552 285.374561,44.8393552 C295.041561,46.5726552 301.974561,49.2060552 306.174561,52.7393552 C310.441561,56.2060552 312.574561,61.1060552 312.574561,67.4393552 C312.574561,71.9726552 311.274561,75.8393552 308.674561,79.0393552 C306.074561,82.2393552 302.541561,84.6726552 298.074561,86.3393552 C293.607561,87.9393552 288.607561,88.7393552 283.074561,88.7393552 C275.274561,88.7393552 269.041561,88.0060552 264.374561,86.5393552 C259.707561,85.0726552 255.141561,82.7058552 250.674561,79.4391552 C247.658561,77.5292552 245.279561,75.0327552 242.953561,72.5920552 C238.337561,67.7485552 233.930561,63.1244552 225.174561,63.7389552 C212.059561,64.6594552 206.991561,70.9801552 202.125561,77.0485552 C196.417561,84.1669552 190.988561,90.9382552 173.174561,88.2392552 L176.674561,82.2391552 C186.508561,89.4853552 190.984561,82.8012552 196.897561,73.9725552 C202.408561,65.7435552 209.166561,55.6513552 222.674561,53.2392552 C236.182561,50.8271552 249.174561,52.4131552 260.674561,63.6393552 C263.474561,66.3726552 266.541561,68.4060552 269.874561,69.7393552 C273.207561,71.0060552 277.041561,71.6393552 281.374561,71.6393552 C286.241561,71.6393552 288.674561,70.6393552 288.674561,68.6393552 C288.674561,67.5726552 287.907561,66.7726552 286.374561,66.2393552 C284.841561,65.7060552 282.341561,65.1393552 278.874561,64.5393552 C273.807561,63.6060552 269.474561,62.5393552 265.874561,61.3393552 C262.341561,60.1393552 259.207561,58.1060552 256.474561,55.2393552 C253.807561,52.3726552 252.474561,48.4393552 252.474561,43.4393552 C252.474561,38.9060552 253.674561,34.9393552 256.074561,31.5393552 C258.474561,28.1393552 261.974561,25.5060552 266.574561,23.6393552 C271.241561,21.7060552 276.841561,20.7393552 283.374561,20.7393552 Z" id="Path" fill="#FFFFFF" fill-rule="nonzero"></path>
            <path d="M351.622561,87.7393552 C354.489561,87.1393552 356.756561,86.3393552 358.422561,85.3393552 L357.422561,72.3393552 C355.689561,73.2060552 353.589561,73.6393552 351.122561,73.6393552 C349.056561,73.6393552 347.522561,73.1726552 346.522561,72.2393552 C345.589561,71.2393552 345.122561,69.6060552 345.122561,67.3393552 L345.122561,53.2393552 L357.722561,53.2393552 L357.722561,37.7393552 L345.122561,37.7393552 L345.122561,20.7393552 L322.122561,27.1393552 L322.122561,37.7393552 L314.422561,37.7393552 L314.422561,53.2393552 L322.122561,53.2393552 L322.122561,70.9393552 C322.122561,77.2726552 323.889561,81.8393552 327.422561,84.6393552 C330.956561,87.3726552 336.322561,88.7393552 343.522561,88.7393552 C346.122561,88.7393552 348.822561,88.4060552 351.622561,87.7393552 Z" id="Path" fill="#FFFFFF" fill-rule="nonzero"></path>
            <path d="M463.415561,36.7393552 C468.349561,36.7393552 472.182561,38.2060552 474.915561,41.1393552 C477.715561,44.0726552 479.115561,48.2060552 479.115561,53.5393552 L479.115561,87.7393552 L456.115561,87.7393552 L456.115561,59.5393552 C456.115561,57.3393552 455.849561,55.8393552 455.315561,55.0393552 C454.782561,54.1726552 453.882561,53.7393552 452.615561,53.7393552 C450.949561,53.7393552 449.715561,54.3726552 448.915561,55.6393552 C448.182561,56.9060552 447.815561,58.8726552 447.815561,61.5393552 L447.815561,87.7393552 L424.815561,87.7393552 L424.815561,59.5393552 C424.815561,57.3393552 424.549561,55.8393552 424.015561,55.0393552 C423.482561,54.1726552 422.582561,53.7393552 421.315561,53.7393552 C419.649561,53.7393552 418.415561,54.3726552 417.615561,55.6393552 C416.882561,56.9060552 416.515561,58.8726552 416.515561,61.5393552 L416.515561,87.7393552 L393.515561,87.7393552 L393.515561,37.7393552 L414.215561,37.7393552 L414.715561,48.6393552 C416.182561,44.7726552 418.382561,41.8393552 421.315561,39.8393552 C424.249561,37.7726552 427.849561,36.7393552 432.115561,36.7393552 C435.915561,36.7393552 439.049561,37.6060552 441.515561,39.3393552 C444.049561,41.0726552 445.849561,43.5393552 446.915561,46.7393552 C448.515561,43.4726552 450.682561,41.0060552 453.415561,39.3393552 C456.215561,37.6060552 459.549561,36.7393552 463.415561,36.7393552 Z" id="Path" fill="#FFFFFF" fill-rule="nonzero"></path>
            <path d="M540.977561,37.7393552 L540.977561,87.7393552 L520.277561,87.7393552 L519.777561,77.1393552 C518.310561,81.0060552 516.144561,83.9060552 513.277561,85.8393552 C510.477561,87.7726552 507.010561,88.7393552 502.877561,88.7393552 C497.544561,88.7393552 493.510561,87.3726552 490.777561,84.6393552 C488.044561,81.8393552 486.677561,77.4726552 486.677561,71.5393552 L486.677561,37.7393552 L509.677561,37.7393552 L509.677561,65.8393552 C509.677561,68.0393552 509.944561,69.5726552 510.477561,70.4393552 C511.077561,71.3060552 512.044561,71.7393552 513.377561,71.7393552 C516.444561,71.7393552 517.977561,69.1060552 517.977561,63.8393552 L517.977561,37.7393552 L540.977561,37.7393552 Z" id="Path" fill="#FFFFFF" fill-rule="nonzero"></path>
            <path d="M571.789561,67.8393552 C571.789561,69.9060552 572.089561,71.4060552 572.689561,72.3393552 C573.289561,73.2060552 574.356561,73.6393552 575.889561,73.6393552 C577.089561,73.6393552 578.289561,73.4726552 579.489561,73.1393552 L578.489561,85.5393552 C577.289561,86.4726552 575.489561,87.2393552 573.089561,87.8393552 C570.689561,88.4393552 568.356561,88.7393552 566.089561,88.7393552 C559.889561,88.7393552 555.455561,87.4060552 552.789561,84.7393552 C550.122561,82.0726552 548.789561,77.6060552 548.789561,71.3393552 L548.789561,17.7393552 L571.789561,17.7393552 L571.789561,67.8393552 Z" id="Path" fill="#FFFFFF" fill-rule="nonzero"></path>
            <path d="M637.071561,37.7393552 L637.071561,87.7393552 L616.371561,87.7393552 L615.871561,77.1393552 C614.404561,81.0060552 612.238561,83.9060552 609.371561,85.8393552 C606.571561,87.7726552 603.104561,88.7393552 598.971561,88.7393552 C593.638561,88.7393552 589.604561,87.3726552 586.871561,84.6393552 C584.138561,81.8393552 582.771561,77.4726552 582.771561,71.5393552 L582.771561,37.7393552 L605.771561,37.7393552 L605.771561,65.8393552 C605.771561,68.0393552 606.038561,69.5726552 606.571561,70.4393552 C607.171561,71.3060552 608.138561,71.7393552 609.471561,71.7393552 C612.538561,71.7393552 614.071561,69.1060552 614.071561,63.8393552 L614.071561,37.7393552 L637.071561,37.7393552 Z" id="Path" fill="#FFFFFF" fill-rule="nonzero"></path>
            <path d="M668.083561,88.7393552 C661.883561,88.7393552 656.649561,88.1726552 652.383561,87.0393552 C648.116561,85.8393552 644.516561,83.9393552 641.583561,81.3393552 L651.683561,69.1393552 C653.616561,70.8726552 655.849561,72.2726552 658.383561,73.3393552 C660.916561,74.4060552 663.583561,74.9393552 666.383561,74.9393552 C667.649561,74.9393552 668.683561,74.8393552 669.483561,74.6393552 C670.349561,74.3726552 670.783561,73.9726552 670.783561,73.4393552 C670.783561,72.8393552 670.216561,72.3060552 669.083561,71.8393552 C667.949561,71.3060552 666.016561,70.7726552 663.283561,70.2393552 C656.083561,68.8393552 650.816561,66.8393552 647.483561,64.2393552 C644.216561,61.5726552 642.583561,58.2060552 642.583561,54.1393552 C642.583561,51.2060552 643.549561,48.4393552 645.483561,45.8393552 C647.483561,43.1726552 650.516561,41.0060552 654.583561,39.3393552 C658.649561,37.6060552 663.683561,36.7393552 669.683561,36.7393552 C675.549561,36.7393552 680.449561,37.4393552 684.383561,38.8393552 C688.383561,40.2393552 691.516561,41.9726552 693.783561,44.0393552 L684.383561,55.1393552 C681.316561,52.0726552 676.783561,50.5393552 670.783561,50.5393552 C668.983561,50.5393552 667.683561,50.7060552 666.883561,51.0393552 C666.083561,51.3726552 665.683561,51.8060552 665.683561,52.3393552 C665.683561,53.1393552 667.716561,53.8060552 671.783561,54.3393552 C679.449561,55.4060552 685.049561,57.2726552 688.583561,59.9393552 C692.116561,62.5393552 693.883561,66.1393552 693.883561,70.7393552 C693.883561,75.9393552 691.749561,80.2393552 687.483561,83.6393552 C683.216561,87.0393552 676.749561,88.7393552 668.083561,88.7393552 Z" id="Path" fill="#FFFFFF" fill-rule="nonzero"></path>
            <path d="M186.174561,109.739255 C181.578561,106.178255 176.024561,120.808255 190.174561,110.739255 C200.653561,103.283255 211.940561,107.903255 226.840561,114.001255 C240.414561,119.557255 256.985561,126.339255 278.674561,126.339255 L285.774561,126.339255 C288.707561,126.339255 290.774561,126.806255 291.974561,127.739255 C293.241561,128.672255 293.874561,130.239255 293.874561,132.439255 C293.874561,134.706255 293.241561,136.306255 291.974561,137.239255 C290.774561,138.106255 288.707561,138.539255 285.774561,138.539255 L254.674561,138.539255 L254.674561,175.739255 L277.474561,175.739255 L277.474561,153.839255 L283.874561,153.839255 L295.574561,175.739255 L320.874561,175.739255 L305.274561,151.339255 C313.207561,148.006255 317.174561,141.506255 317.174561,131.839255 C317.174561,124.506255 314.907561,119.006255 310.374561,115.339255 C305.907561,111.606255 299.274561,109.739255 290.474561,109.739255 L272.390561,109.739255 C254.994561,109.387255 242.255561,105.907255 231.671561,103.015255 C214.391561,98.2942552 202.856561,95.1423552 186.174561,109.739255 Z" id="Path" fill="#FFFFFF" fill-rule="nonzero"></path>
            <path d="M421.083561,125.739255 L406.883561,125.739255 L406.883561,124.939255 C406.883561,122.672255 407.516561,121.072255 408.783561,120.139255 C410.116561,119.206255 412.049561,118.739255 414.583561,118.739255 C415.916561,118.739255 417.016561,118.872255 417.883561,119.139255 C418.749561,119.406255 419.549561,119.806255 420.283561,120.339255 L421.783561,107.039255 C418.916561,104.839255 414.416561,103.739255 408.283561,103.739255 C401.749561,103.739255 396.316561,105.339255 391.983561,108.539255 C387.649561,111.672255 385.483561,116.739255 385.483561,123.739255 L385.483561,125.739255 L378.783561,125.739255 L378.783561,141.239255 L385.483561,141.239255 L385.483561,175.739255 L408.483561,175.739255 L408.483561,141.239255 L421.083561,141.239255 L421.083561,125.739255 Z" id="Path" fill="#FFFFFF" fill-rule="nonzero"></path>
            <path d="M448.383561,155.839255 C448.383561,157.906255 448.683561,159.406255 449.283561,160.339255 C449.883561,161.206255 450.949561,161.639255 452.483561,161.639255 C453.683561,161.639255 454.883561,161.472255 456.083561,161.139255 L455.083561,173.539255 C453.883561,174.472255 452.083561,175.239255 449.683561,175.839255 C447.283561,176.439255 444.949561,176.739255 442.683561,176.739255 C436.483561,176.739255 432.049561,175.406255 429.383561,172.739255 C426.716561,170.072255 425.383561,165.606255 425.383561,159.339255 L425.383561,105.739255 L448.383561,105.739255 L448.383561,155.839255 Z" id="Path" fill="#FFFFFF" fill-rule="nonzero"></path>
            <path d="M376.482561,149.139255 C376.482561,151.672255 376.315561,153.672255 375.982561,155.139255 L344.182561,155.139255 C344.515561,157.606255 345.215561,159.272255 346.282561,160.139255 C347.348561,161.006255 348.948561,161.439255 351.082561,161.439255 C354.348561,161.439255 356.348561,160.006255 357.082561,157.139255 L375.582561,162.139255 C374.448561,166.939255 371.648561,170.572255 367.182561,173.039255 C362.782561,175.506255 357.415561,176.739255 351.082561,176.739255 C341.615561,176.739255 334.415561,174.506255 329.482561,170.039255 C324.615561,165.572255 322.182561,159.139255 322.182561,150.739255 C322.182561,142.472255 324.582561,136.072255 329.382561,131.539255 C334.248561,127.006255 341.082561,124.739255 349.882561,124.739255 C358.482561,124.739255 365.048561,126.939255 369.582561,131.339255 C374.182561,135.739255 376.482561,141.672255 376.482561,149.139255 Z M349.982561,139.939255 C348.248561,139.939255 346.915561,140.439255 345.982561,141.439255 C345.048561,142.439255 344.448561,144.172255 344.182561,146.639255 L354.982561,146.639255 C354.782561,144.372255 354.282561,142.706255 353.482561,141.639255 C352.748561,140.506255 351.582561,139.939255 349.982561,139.939255 Z" id="Shape" fill="#FFFFFF"></path>
            <path d="M511.931561,149.139255 C511.931561,151.672255 511.764561,153.672255 511.431561,155.139255 L479.631561,155.139255 C479.964561,157.606255 480.664561,159.272255 481.731561,160.139255 C482.798561,161.006255 484.398561,161.439255 486.531561,161.439255 C489.798561,161.439255 491.798561,160.006255 492.531561,157.139255 L511.031561,162.139255 C509.898561,166.939255 507.098561,170.572255 502.631561,173.039255 C498.231561,175.506255 492.864561,176.739255 486.531561,176.739255 C477.064561,176.739255 469.864561,174.506255 464.931561,170.039255 C460.064561,165.572255 457.631561,159.139255 457.631561,150.739255 C457.631561,142.472255 460.031561,136.072255 464.831561,131.539255 C469.698561,127.006255 476.531561,124.739255 485.331561,124.739255 C493.931561,124.739255 500.498561,126.939255 505.031561,131.339255 C509.631561,135.739255 511.931561,141.672255 511.931561,149.139255 Z M485.431561,139.939255 C483.698561,139.939255 482.364561,140.439255 481.431561,141.439255 C480.498561,142.439255 479.898561,144.172255 479.631561,146.639255 L490.431561,146.639255 C490.231561,144.372255 489.731561,142.706255 488.931561,141.639255 C488.198561,140.506255 487.031561,139.939255 485.431561,139.939255 Z" id="Shape" fill="#FFFFFF"></path>
            <polygon id="Path" fill="#FFFFFF" fill-rule="nonzero" points="541.907561 160.439255 549.207561 175.739255 574.607561 175.739255 557.307561 150.739255 574.207561 125.739255 549.107561 125.739255 542.207561 140.239255 535.507561 125.739255 510.107561 125.739255 527.007561 150.339255 509.707561 175.739255 534.807561 175.739255"></polygon>
            <path d="M140.873561,34.3283552 C151.294561,24.0582552 144.692561,13.6167552 136.478561,10.3539552 C134.967561,9.75365525 134.084561,6.47785525 135.708561,6.39495525 C150.535561,5.63808525 167.532561,27.6930552 154.663561,41.8183552 C142.128561,55.5763552 138.050561,40.9051552 140.873561,34.3283552 Z" id="Path" fill="#BA6598" fill-rule="nonzero"></path>
            <path d="M46.0256606,42.8923552 C45.8430606,37.4705552 45.6144606,30.6789552 40.7884606,23.7826552 C39.4457606,21.8639552 36.7506606,24.2773552 37.2377606,26.5679552 C38.1918606,31.0541552 37.1023606,34.7809552 36.0402606,38.4145552 C34.2336606,44.5946552 32.5059606,50.5050552 41.0460606,59.4229552 C49.8382606,68.6042552 58.6456606,58.5704552 55.8470606,54.3309552 C46.4152606,54.4636552 46.2576606,49.7846552 46.0256606,42.8923552 Z" id="Path" fill="#BA6598" fill-rule="nonzero"></path>
            <path d="M28.5310606,159.508255 C28.2372606,141.087255 42.2983606,128.403255 47.5573606,125.660255 L64.6910606,139.496255 C62.2895606,140.490255 59.6143606,141.206255 56.8511606,141.946255 C48.0589606,144.299255 38.3759606,146.890255 33.7825606,159.445255 C32.6759606,162.470255 28.5824606,162.728255 28.5310606,159.508255 Z" id="Path" fill="#BA6598" fill-rule="nonzero"></path>
            <path d="M41.4920648,128.436255 C26.1032606,136.151255 11.7786606,137.603255 0.902410572,128.491255 C-1.42733743,126.539255 1.14934057,123.059255 4.14437057,123.575255 C18.0965606,125.982255 33.6549606,121.943255 36.8171606,115.615255 C40.0006606,109.244255 41.4949606,122.651255 41.4920648,128.436255 Z" id="Path" fill="#BA6598" fill-rule="nonzero"></path>
            <path d="M163.162561,67.2084552 C171.505561,90.1686552 189.380561,99.2492552 211.762561,83.7465552 C213.205561,82.7468552 215.130561,83.8549552 214.538561,85.5077552 C208.363561,102.742255 176.743561,97.2915552 175.232561,125.982255 C173.936561,150.583255 196.208561,156.422255 200.803561,184.272255 C201.078561,185.942255 199.210561,187.092255 197.741561,186.251255 C163.727561,166.784255 98.4135606,177.014255 75.4344606,216.799255 C74.5540606,218.324255 72.2470606,218.177255 71.7345606,216.493255 C62.6905606,186.769255 80.1041606,171.410255 66.9041606,150.271255 C57.0335606,134.464255 31.2874606,125.194255 18.8330606,149.138255 C17.8159606,151.093255 14.8324606,150.629255 15.1205606,148.444255 C18.5189606,122.668255 46.9291606,120.332255 47.5002606,95.5559552 C48.0522606,71.6096552 15.9277606,62.0711552 23.2659606,38.2372552 C23.9489606,36.0188552 27.7922606,37.4228552 28.1164606,39.7213552 C29.4975606,49.5161552 37.3109606,55.2823552 46.9880606,53.2949552 C60.7018606,50.4785552 73.9395606,32.9573552 96.4772606,28.3287552 C116.093561,24.3000552 137.011561,34.5889552 146.889561,30.2259552 C157.536561,25.5231552 159.193561,18.5042552 155.858561,10.7694552 C154.968561,8.70765525 157.315561,6.35616525 158.963561,7.88115525 C179.356561,26.7521552 155.301561,45.5769552 163.162561,67.2084552 Z" id="Path" fill="#F5B9DD" fill-rule="nonzero"></path>
            <path d="M15.6894606,145.262255 C18.1317606,134.553255 25.1586606,128.173255 31.9896606,121.970255 C39.7254606,114.946255 47.2098606,108.150255 47.5001606,95.5554552 C47.6405606,89.4656552 45.6675606,84.3076552 42.7678606,79.6093552 L44.6745606,75.7389552 C59.1628606,99.2202552 53.1841606,120.704255 33.2227606,135.703255 C29.8395606,136.850255 26.6116606,138.895255 23.7372606,142.018255 C20.2380606,143.979255 17.6132606,144.935255 15.6894606,145.262255 Z" id="Path" fill="#FFD9F0" fill-rule="nonzero"></path>
            <path d="M71.4363606,215.484255 C71.3741606,215.268255 71.3133606,215.052255 71.2539606,214.838255 C72.8054606,200.285255 87.8279606,177.667255 95.1745606,174.239255 C101.174561,171.439255 112.341561,178.072255 117.174561,181.739255 C99.7595606,191.193255 89.2767606,198.171255 71.4363606,215.484255 Z" id="Path" fill="#FFD9F0" fill-rule="nonzero"></path>
            <path d="M191.772561,183.271255 C188.107561,181.683255 184.179561,180.381255 180.059561,179.367255 L179.674561,179.239255 C181.549561,168.927255 178.370561,162.240255 175.031561,155.213255 C171.245561,147.249255 167.252561,138.848255 170.174561,124.239255 L175.886561,134.980255 C177.514561,142.679255 181.737561,148.467255 186.302561,154.568255 L200.008561,180.345255 C200.312561,181.604255 200.578561,182.912255 200.803561,184.271255 C200.925561,185.011255 200.626561,185.649255 200.128561,186.057255 L191.772561,183.271255 Z" id="Path" fill="#FFD9F0" fill-rule="nonzero"></path>
            <path d="M161.558561,56.0840552 C161.387561,59.7160552 161.785561,63.4189552 163.161561,67.2079552 C171.505561,90.1682552 189.380561,99.2482552 211.761561,83.7460552 C213.205561,82.7463552 215.130561,83.8544552 214.538561,85.5072552 C211.960561,92.7026552 204.946561,95.9439552 197.540561,99.3662552 C196.240561,99.9672552 194.927561,100.574255 193.623561,101.209255 C181.582561,103.023255 167.605561,98.1932552 163.174561,87.7389552 C157.720561,74.8734552 158.715561,64.7660552 161.558561,56.0840552 Z" id="Path" fill="#FFD9F0" fill-rule="nonzero"></path>
            <path d="M161.250561,10.1989552 C161.226561,10.3747552 161.201561,10.5546552 161.174561,10.7387552 C166.992561,31.7340552 154.222561,44.5364552 140.174561,46.7387552 C133.061561,47.8539552 128.082561,46.4686552 122.357561,44.8759552 C117.041561,43.3967552 111.082561,41.7388552 102.174561,41.7388552 C91.1680606,41.7388552 81.6933606,45.2681552 72.6532606,48.6354552 C59.3809606,53.5793552 47.0455606,58.1742552 32.1745606,50.7387552 C32.1005606,50.0361552 32.0343606,49.3407552 31.9742606,48.6514552 C35.4463606,52.6909552 40.8411606,54.5568552 46.9879606,53.2945552 C52.9975606,52.0603552 58.9157606,48.0022552 65.5652606,43.4427552 C74.0896606,37.5976552 83.8159606,30.9284552 96.4771606,28.3282552 C106.774561,26.2134552 117.430561,28.0439552 126.659561,29.6292552 C135.012561,31.0640552 142.196561,32.2981552 146.889561,30.2254552 C157.536561,25.5226552 159.193561,18.5037552 155.857561,10.7689552 C154.968561,8.70715525 157.315561,6.35568525 158.963561,7.88065525 C159.798561,8.65345525 160.559561,9.42615525 161.250561,10.1989552 Z" id="Path" fill="#FFD9F0" fill-rule="nonzero"></path>
            <path d="M99.1745606,149.739255 C115.174561,152.239255 131.174561,148.739255 146.174561,140.739255 C144.754561,149.257255 138.236561,153.540255 129.674561,156.239255 C119.485561,159.450255 106.779561,157.344255 99.1745606,149.739255 Z" id="Path" fill="#FFD9F0" fill-rule="nonzero"></path>
            <path d="M157.174561,101.739255 C131.008561,120.405255 94.9704606,141.578255 73.1747606,117.739255 C57.1747606,100.239255 87.1367606,65.5118552 107.674561,62.8720552 C128.254561,60.2268552 166.174561,74.2389552 157.174561,101.739255 Z" id="Path" fill="#FFD9F0" fill-rule="nonzero"></path>
            <path d="M82.6745606,158.739255 C85.4359606,158.739255 87.6745606,156.500255 87.6745606,153.739255 C87.6745606,150.978255 85.4359606,148.739255 82.6745606,148.739255 C79.9131606,148.739255 77.6745606,150.978255 77.6745606,153.739255 C77.6745606,156.500255 79.9131606,158.739255 82.6745606,158.739255 Z" id="Path" fill="#E096C3" fill-rule="nonzero"></path>
            <path d="M160.674561,139.239255 C160.674561,140.620255 159.555561,141.739255 158.174561,141.739255 C156.793561,141.739255 155.674561,140.620255 155.674561,139.239255 C155.674561,137.858255 156.793561,136.739255 158.174561,136.739255 C159.555561,136.739255 160.674561,137.858255 160.674561,139.239255 Z" id="Path" fill="#E096C3" fill-rule="nonzero"></path>
            <path d="M162.174561,134.739255 C163.555561,134.739255 164.674561,133.620255 164.674561,132.239255 C164.674561,130.858255 163.555561,129.739255 162.174561,129.739255 C160.793561,129.739255 159.674561,130.858255 159.674561,132.239255 C159.674561,133.620255 160.793561,134.739255 162.174561,134.739255 Z" id="Path" fill="#E096C3" fill-rule="nonzero"></path>
            <path d="M167.674561,138.239255 C167.674561,139.620255 166.555561,140.739255 165.174561,140.739255 C163.793561,140.739255 162.674561,139.620255 162.674561,138.239255 C162.674561,136.858255 163.793561,135.739255 165.174561,135.739255 C166.555561,135.739255 167.674561,136.858255 167.674561,138.239255 Z" id="Path" fill="#E096C3" fill-rule="nonzero"></path>
            <path d="M143.797561,80.3047552 C127.188561,67.5028552 88.3057606,74.0811552 77.7989606,93.8592552 C68.8740606,110.659255 72.1838606,132.399255 87.7821606,142.470255 C98.9575606,149.684255 106.205561,148.224255 117.082561,146.033255 C118.781561,145.691255 120.570561,145.331255 122.476561,144.983255 C123.011561,144.885255 123.542561,144.789255 124.068561,144.694255 C137.001561,142.350255 147.461561,140.455255 153.781561,128.915255 C162.765561,112.510255 158.562561,91.6849552 143.797561,80.3047552 Z" id="Path" fill="#E096C3" fill-rule="nonzero"></path>
            <path d="M157.435561,3.37344525 C155.234561,1.85916525 153.320561,1.05367525 151.786561,0.714085248 C151.517561,0.566785248 151.238561,0.427415248 150.951561,0.296145248 C148.882561,-0.649444752 146.535561,0.826045248 148.000561,2.51242525 C155.629561,11.2915552 160.252561,27.2802552 143.164561,28.8738552 C136.035561,29.5387552 128.975561,27.8055552 121.894561,26.0671552 C113.156561,23.9219552 104.386561,21.7688552 95.4147606,24.1042552 C87.9326606,25.8459552 79.0450606,31.8714552 70.2504606,37.8338552 C59.2558606,45.2878552 48.4067606,52.6431552 40.6314606,51.4064552 C29.7921606,49.6825552 28.4592606,35.1510552 31.0794606,28.9980552 C32.0408606,26.9020552 32.4967606,25.0525552 31.5670606,24.1297552 C30.6816606,23.2510552 29.2050606,23.3493552 28.4243606,24.3116552 C11.0718606,45.6966552 20.7576606,57.4392552 30.8589606,69.6854552 C38.0069606,78.3512552 45.3629606,87.2692552 43.4933606,100.034255 C42.1299606,109.343255 35.4676606,115.879255 28.7676606,122.452255 C23.8215606,127.304255 18.8549606,132.176255 15.9842606,138.199255 C13.4886606,143.435255 9.93276057,154.086255 12.4215606,159.846255 C12.5118606,160.099255 12.6359606,160.326255 12.7864606,160.527255 C13.4112606,161.418255 14.3971606,161.740255 15.3368606,161.623255 C16.3520606,161.543255 17.3271606,160.952255 17.7416606,159.789255 C25.7456606,137.323255 49.9002606,132.139255 63.5301606,153.586255 C69.8111606,163.470255 68.5113606,175.706255 67.2207606,187.855255 C66.4240606,195.355255 65.6309606,202.821255 66.6263606,209.681255 C66.7178606,210.312255 66.8051606,211.040255 66.8997606,211.830255 C67.3798606,215.839255 68.0486606,221.424255 70.4208606,223.783255 C71.5597606,224.916255 72.9691606,225.144255 74.2113606,224.783255 C75.1992606,224.567255 76.1204606,223.971255 76.7368606,222.925255 C93.2764606,194.851255 130.655561,185.054255 161.264561,183.987255 C173.251561,183.570255 180.029561,186.066255 186.736561,188.537255 C191.003561,190.108255 195.242561,191.670255 200.777561,192.463255 C202.388561,192.694255 203.692561,191.992255 204.474561,190.908255 C205.111561,190.114255 205.459561,189.069255 205.294561,187.888255 C203.970561,178.427255 198.283561,169.227255 192.633561,160.087255 C185.297561,148.219255 178.023561,136.452255 180.445561,124.347255 C182.183561,115.657255 190.527561,110.585255 198.656561,105.644255 C203.357561,102.787255 207.985561,99.9742552 211.224561,96.5300552 C215.411561,92.0763552 217.724561,85.1944552 217.902561,81.9979552 C218.947561,79.6851552 215.949561,77.1747552 213.796561,78.9811552 C194.426561,95.2352552 169.082561,87.9929552 166.310561,60.9322552 C165.666561,54.6393552 167.152561,48.5353552 168.640561,42.4278552 C170.218561,35.9519552 171.796561,29.4720552 170.836561,22.7588552 C169.657561,14.5230552 164.111561,7.96625525 157.435561,3.37344525 Z M102.045561,54.7481552 C110.079561,43.1485552 108.745561,34.9641552 105.412561,31.8230552 C109.998561,31.8267552 114.874561,32.4028552 119.792561,32.9838552 C132.374561,34.4704552 145.231561,35.9894552 154.221561,28.0400552 C157.892561,24.7933552 159.335561,18.4888552 158.598561,12.5073552 C158.377561,10.7084552 158.006561,9.05065525 157.456561,7.55598525 C164.967561,14.2814552 168.214561,27.1109552 163.326561,35.5270552 C157.268561,45.9590552 153.600561,67.5402552 167.882561,83.5812552 C176.750561,93.5425552 189.192561,96.4949552 201.645561,91.8188552 C203.943561,90.9558552 206.976561,89.7394552 209.858561,88.2497552 C206.068561,93.6587552 199.536561,96.8225552 192.858561,100.056255 C180.954561,105.822255 168.588561,111.811255 170.478561,131.145255 C171.491561,141.497255 176.453561,147.710255 181.723561,154.309255 C185.002561,158.415255 188.400561,162.669255 191.041561,168.163255 C193.086561,172.418255 194.173561,176.151255 194.892561,179.354255 C184.194561,173.265255 172.026561,169.921255 159.572561,169.019255 C165.895561,164.121255 168.845561,158.717255 169.829561,154.256255 C170.206561,152.551255 168.168561,151.698255 166.841561,152.833255 C161.365561,157.519255 149.234561,166.247255 131.028561,170.345255 C110.222561,175.028255 95.4642606,171.460255 86.2604606,168.163255 C84.4655606,167.520255 83.0792606,169.267255 84.4397606,170.603255 C88.5881606,174.676255 95.3946606,178.809255 105.106561,180.706255 C103.660561,181.498255 102.243561,182.327255 100.857561,183.193255 C92.6520606,188.315255 80.6246606,197.848255 73.9958606,208.251255 C72.9236606,200.298255 73.5811606,191.893255 74.2311606,183.583255 C75.7758606,163.839255 77.2781606,144.635255 55.4309606,133.311255 C44.5363606,127.664255 31.6578606,128.997255 22.9261606,137.275255 C26.2205606,132.025255 30.6392606,127.263255 35.0100606,122.552255 C46.4398606,110.233255 57.5428606,98.2672552 47.3599606,78.8499552 C44.5389606,73.4707552 40.5004606,68.9508552 36.4806606,64.4518552 C35.7978606,63.6877552 35.1156606,62.9242552 34.4400606,62.1571552 C28.3727606,55.2688552 23.5174606,47.7836552 26.1507606,38.2980552 C27.4230606,68.6314552 56.6133606,51.8594552 73.6458606,42.0730552 C76.8872606,40.2105552 79.6884606,38.6010552 81.7729606,37.6174552 C91.3333606,33.1063552 100.273561,39.1192552 102.045561,54.7481552 Z" id="Shape" fill="#E096C3"></path>
            <path d="M82.4105606,96.5323552 C91.7908606,80.7602552 125.449561,74.9535552 139.578561,84.7914552 C152.139561,93.5368552 155.436561,109.902255 147.423561,122.989255 C139.847561,135.362255 100.739561,140.798255 90.2551606,134.730255 C76.9542606,127.031255 74.4426606,109.929255 82.4105606,96.5323552 Z" id="Path" fill="#FFFFFF" fill-rule="nonzero"></path>
            <path d="M151.648561,105.147255 C152.224561,111.123255 150.870561,117.359255 147.423561,122.989255 C139.847561,135.362255 100.739561,140.798255 90.2551606,134.729255 C79.8640606,128.715255 76.0579606,116.962255 78.6890606,105.719255 C79.1906606,122.408255 92.6858606,126.739255 119.174561,126.739255 C137.620561,126.739255 150.537561,119.934255 151.648561,105.147255 Z" id="Path" fill="#F0F0F0" fill-rule="nonzero"></path>
            <path d="M75.7862606,89.9267552 C80.8231606,79.9627552 89.1842606,73.2386552 100.479561,70.1936552 C102.079561,69.7623552 103.131561,68.1859552 102.798561,66.5629552 L101.786561,61.6345552 C101.438561,59.9395552 99.7565606,58.9106552 98.1425606,59.5344552 C95.1453606,60.6926552 90.2961606,62.9104552 85.4320606,66.5893552 C82.4320606,68.6427552 80.0101606,64.8509552 82.0476606,63.1151552 C84.2914606,61.3329552 86.6342606,59.8738552 89.1746606,58.5065552 C96.1746606,54.7389552 90.6746606,48.9714552 84.1746606,53.7389552 C77.6746606,58.5065552 70.1746606,65.7390552 68.1746606,75.2390552 C67.6746606,77.6140552 69.1328606,79.4056552 70.6119606,76.7389552 C72.2815606,73.9850552 73.9084606,71.6510552 75.5357606,69.6356552 C75.6859606,69.4495552 75.8362606,69.2662552 75.9865606,69.0854552 C78.0455606,67.0670552 81.1535606,69.9063552 78.3666606,73.2390552 C74.8194606,77.4408552 71.8528606,82.7121552 70.4156606,89.2599552 C69.6796606,92.6132552 74.2374606,92.9906552 75.7862606,89.9267552 Z M116.001561,67.7612552 C126.142561,67.4034552 135.118561,70.9437552 142.232561,76.2580552 C144.994561,78.3209552 149.432561,75.7649552 147.336561,73.0284552 C137.179561,59.7675552 121.435561,57.1134552 114.465561,56.6032552 C112.619561,56.4680552 111.277561,58.1426552 111.650561,59.9559552 L112.745561,65.2903552 C113.055561,66.7994552 114.461561,67.8155552 116.001561,67.7612552 Z M73.6746606,97.2390552 C73.6746606,98.6192552 72.5553606,99.7392552 71.1746606,99.7392552 C69.7939606,99.7392552 68.6746606,98.6192552 68.6746606,97.2390552 C68.6746606,95.8583552 69.7939606,94.7390552 71.1746606,94.7390552 C72.5553606,94.7390552 73.6746606,95.8583552 73.6746606,97.2390552 Z M151.674561,79.2390552 C151.674561,80.6197552 150.555561,81.7390552 149.174561,81.7390552 C147.793561,81.7390552 146.674561,80.6197552 146.674561,79.2390552 C146.674561,77.8583552 147.793561,76.7390552 149.174561,76.7390552 C150.555561,76.7390552 151.674561,77.8583552 151.674561,79.2390552 Z M155.674561,84.2390552 C155.674561,85.6197552 154.555561,86.7390552 153.174561,86.7390552 C151.793561,86.7390552 150.674561,85.6197552 150.674561,84.2390552 C150.674561,82.8583552 151.793561,81.7390552 153.174561,81.7390552 C154.555561,81.7390552 155.674561,82.8583552 155.674561,84.2390552 Z M143.369561,137.958255 C147.743561,138.919255 150.467561,142.798255 151.952561,146.112255 C152.326561,146.945255 153.561561,147.003255 153.883561,146.149255 C155.271561,142.466255 155.033561,139.988255 151.826561,136.739255 C149.313561,135.019255 145.926561,134.956255 142.892561,135.967255 C141.887561,136.302255 142.335561,137.731255 143.369561,137.958255 Z M146.241561,140.638255 C140.582561,153.453255 114.365561,160.077255 99.1235606,149.797255 C99.1235606,149.797255 97.0648606,149.688255 97.4464606,151.651255 C100.798561,155.617255 112.261561,163.176255 125.735561,160.923255 C138.903561,158.722255 146.999561,147.942255 148.681561,142.710255 C148.300561,140.747255 146.241561,140.638255 146.241561,140.638255 Z M94.0078606,156.888255 C93.6572606,149.810255 99.1745606,146.617255 104.670561,144.847255 C105.474561,144.587255 105.622561,143.565255 104.832561,143.263255 C101.099561,141.839255 95.6981606,142.411255 92.6744606,146.239255 C89.8129606,149.862255 90.2400606,154.371255 92.4434606,157.640255 C92.9815606,158.439255 94.0554606,157.849255 94.0078606,156.888255 Z M117.873561,120.084255 C123.012561,119.029255 126.323561,114.007255 125.268561,108.868255 C124.212561,103.728255 119.190561,100.417255 114.051561,101.473255 C108.911561,102.528255 105.600561,107.550255 106.656561,112.690255 C107.711561,117.829255 112.733561,121.140255 117.873561,120.084255 Z" id="Shape" fill="#BA6598"></path>
            <path d="M116.386561,101.286255 C119.570561,101.426255 122.469561,103.170255 124.098561,105.869255 C123.505561,107.075255 122.381561,108.004255 120.963561,108.295255 C118.529561,108.795255 116.150561,107.226255 115.650561,104.792255 C115.389561,103.522255 115.691561,102.267255 116.386561,101.286255 Z" id="Path" fill="#F5B9DD" fill-rule="nonzero"></path>
        </g>
    </g>
</svg>