<svg width="230" height="230" viewBox="0 0 230 230" fill="none" xmlns="http://www.w3.org/2000/svg">
<path d="M144.199 36.5891C154.62 26.319 148.018 15.8775 139.804 12.6147C138.293 12.0144 137.41 8.7386 139.034 8.6557C153.861 7.89883 170.858 29.9538 157.989 44.0791C145.454 57.8371 141.376 43.1659 144.199 36.5891Z" fill="#BA6598"/>
<path d="M49.3508 45.1531C49.1683 39.7313 48.9396 32.9397 44.1137 26.0434C42.771 24.1247 40.0759 26.5381 40.563 28.8287C41.517 33.3149 40.4276 37.0417 39.3654 40.6753C37.5589 46.8554 35.8312 52.7658 44.3712 61.6837C53.1635 70.865 61.9709 60.8312 59.1723 56.5917C49.7404 56.7244 49.5829 52.0454 49.3508 45.1531Z" fill="#BA6598"/>
<path d="M31.8563 161.769C31.5624 143.348 45.6235 130.664 50.8826 127.921L68.0163 141.757C65.6147 142.751 62.9395 143.467 60.1764 144.207C51.3842 146.56 41.7012 149.151 37.1078 161.706C36.0012 164.731 31.9076 164.989 31.8563 161.769Z" fill="#BA6598"/>
<path d="M44.8173 130.697C29.4285 138.412 15.1039 139.864 4.22761 130.752C1.89786 128.8 4.47453 125.32 7.46957 125.836C21.4218 128.243 36.9802 124.204 40.1424 117.876C43.3258 111.505 44.8201 124.912 44.8173 130.697Z" fill="#BA6598"/>
<path d="M166.488 69.4692C174.832 92.4294 192.706 101.51 215.088 86.0073C216.531 85.0076 218.456 86.1157 217.864 87.7685C211.689 105.003 180.069 99.5523 178.558 128.243C177.262 152.844 199.534 158.683 204.129 186.533C204.405 188.203 202.536 189.353 201.067 188.512C167.053 169.045 101.739 179.275 78.7602 219.06C77.8797 220.584 75.5727 220.438 75.0603 218.754C66.0162 189.03 83.4298 173.671 70.2298 152.532C60.3593 136.725 34.6132 127.455 22.1587 151.399C21.1416 153.354 18.1582 152.89 18.4463 150.705C21.8447 124.929 50.2549 122.593 50.826 97.8167C51.3779 73.8704 19.2534 64.3319 26.5916 40.498C27.2747 38.2796 31.118 39.6836 31.4421 41.9821C32.8233 51.7769 40.6366 57.5431 50.3137 55.5557C64.0275 52.7393 77.2652 35.2181 99.803 30.5895C119.419 26.5608 140.338 36.8497 150.215 32.4867C160.862 27.7839 162.519 20.765 159.184 13.0302C158.295 10.9684 160.641 8.61691 162.289 10.1419C182.682 29.0129 158.627 47.8377 166.488 69.4692Z" fill="#F5B9DD"/>
<path d="M19.0146 147.523C21.4569 136.814 28.4839 130.434 35.3149 124.231C43.0506 117.207 50.535 110.411 50.8254 97.8162C50.9657 91.7264 48.9928 86.5684 46.093 81.8701L47.9997 77.9997C62.4881 101.481 56.5094 122.965 36.5479 137.964C33.1647 139.111 29.9369 141.156 27.0625 144.279C23.5632 146.24 20.9384 147.196 19.0146 147.523Z" fill="#FFD9F0"/>
<path d="M74.7615 217.745C74.6993 217.529 74.6386 217.313 74.5791 217.099C76.1307 202.546 91.1532 179.928 98.4997 176.5C104.5 173.7 115.666 180.333 120.5 184C103.085 193.454 92.6019 200.432 74.7615 217.745Z" fill="#FFD9F0"/>
<path d="M195.097 185.532C191.433 183.944 187.505 182.642 183.384 181.628L183 181.5C184.875 171.188 181.696 164.501 178.356 157.474C174.571 149.51 170.578 141.109 173.5 126.5L179.212 137.241C180.84 144.94 185.063 150.728 189.628 156.829L203.334 182.606C203.638 183.865 203.904 185.173 204.129 186.532C204.251 187.272 203.952 187.91 203.454 188.318L195.097 185.532Z" fill="#FFD9F0"/>
<path d="M164.884 58.3448C164.713 61.9768 165.11 65.6797 166.487 69.4687C174.831 92.429 192.706 101.509 215.087 86.0068C216.53 85.0071 218.456 86.1152 217.863 87.768C215.285 94.9634 208.272 98.2047 200.866 101.627C199.565 102.228 198.252 102.835 196.949 103.47C184.908 105.284 170.931 100.454 166.5 89.9997C161.046 77.1342 162.041 67.0268 164.884 58.3448Z" fill="#FFD9F0"/>
<path d="M164.576 12.4597C164.552 12.6355 164.527 12.8154 164.5 12.9995C170.318 33.9948 157.548 46.7972 143.5 48.9995C136.386 50.1147 131.407 48.7294 125.683 47.1367C120.367 45.6575 114.408 43.9996 105.5 43.9996C94.4932 43.9996 85.0185 47.5289 75.9785 50.8962C62.7062 55.8401 50.3708 60.435 35.4997 52.9995C35.4258 52.2969 35.3595 51.6015 35.2995 50.9122C38.7716 54.9517 44.1664 56.8176 50.3132 55.5553C56.3228 54.3211 62.241 50.263 68.8905 45.7035C77.4149 39.8584 87.1411 33.1892 99.8024 30.589C110.099 28.4742 120.755 30.3047 129.985 31.89C138.338 33.3248 145.522 34.5589 150.215 32.4862C160.862 27.7834 162.519 20.7645 159.183 13.0297C158.294 10.9679 160.641 8.61643 162.289 10.1414C163.124 10.9142 163.884 11.6869 164.576 12.4597Z" fill="#FFD9F0"/>
<path d="M102.5 152C118.5 154.5 134.5 151 149.5 143C148.08 151.518 141.562 155.801 133 158.5C122.811 161.711 110.105 159.605 102.5 152Z" fill="#FFD9F0"/>
<path d="M160.5 104C134.333 122.666 98.2957 143.839 76.4999 120C60.4999 102.5 90.462 67.7726 111 65.1328C131.58 62.4876 169.5 76.4997 160.5 104Z" fill="#FFD9F0"/>
<path d="M86 161C88.7614 161 91 158.761 91 156C91 153.239 88.7614 151 86 151C83.2386 151 81 153.239 81 156C81 158.761 83.2386 161 86 161Z" fill="#E096C3"/>
<path d="M164 141.5C164 142.881 162.881 144 161.5 144C160.119 144 159 142.881 159 141.5C159 140.119 160.119 139 161.5 139C162.881 139 164 140.119 164 141.5Z" fill="#E096C3"/>
<path d="M165.5 137C166.881 137 168 135.881 168 134.5C168 133.119 166.881 132 165.5 132C164.119 132 163 133.119 163 134.5C163 135.881 164.119 137 165.5 137Z" fill="#E096C3"/>
<path d="M171 140.5C171 141.881 169.881 143 168.5 143C167.119 143 166 141.881 166 140.5C166 139.119 167.119 138 168.5 138C169.881 138 171 139.119 171 140.5Z" fill="#E096C3"/>
<path d="M147.123 82.5655C130.514 69.7636 91.6312 76.3419 81.1244 96.12C72.1995 112.92 75.5093 134.66 91.1076 144.731C102.283 151.945 109.531 150.485 120.408 148.294C122.107 147.952 123.896 147.592 125.802 147.244C126.337 147.146 126.868 147.05 127.394 146.955C140.327 144.611 150.787 142.716 157.107 131.176C166.091 114.771 161.888 93.9457 147.123 82.5655Z" fill="#E096C3"/>
<path fill-rule="evenodd" clip-rule="evenodd" d="M160.761 5.63419C158.56 4.11991 156.646 3.31442 155.112 2.97483C154.843 2.82753 154.564 2.68816 154.277 2.55689C152.208 1.6113 149.861 3.08679 151.326 4.77317C158.955 13.5523 163.578 29.541 146.49 31.1346C139.361 31.7995 132.301 30.0663 125.22 28.3279C116.482 26.1827 107.712 24.0296 98.7402 26.365C91.2581 28.1067 82.3705 34.1322 73.5759 40.0946C62.5813 47.5486 51.7322 54.9039 43.9569 53.6672C33.1176 51.9433 31.7847 37.4118 34.4049 31.2588C35.3663 29.1628 35.8222 27.3133 34.8925 26.3905C34.0071 25.5118 32.5305 25.6101 31.7498 26.5724C14.3973 47.9574 24.0831 59.7 34.1844 71.9462C41.3324 80.612 48.6884 89.53 46.8188 102.295C45.4554 111.604 38.7931 118.14 32.0931 124.713C27.147 129.565 22.1804 134.437 19.3097 140.46C16.8141 145.696 13.2582 156.347 15.747 162.107C15.8373 162.36 15.9614 162.587 16.1119 162.788C16.7367 163.679 17.7226 164.001 18.6623 163.884C19.6775 163.804 20.6526 163.213 21.0671 162.05C29.0711 139.584 53.2257 134.4 66.8556 155.847C73.1366 165.731 71.8368 177.967 70.5462 190.116C69.7495 197.616 68.9564 205.082 69.9518 211.942C70.0433 212.573 70.1306 213.301 70.2252 214.091C70.7053 218.1 71.3741 223.685 73.7463 226.044C74.8852 227.177 76.2946 227.405 77.5368 227.044C78.5247 226.828 79.4459 226.232 80.0623 225.186C96.6019 197.112 133.981 187.315 164.59 186.248C176.577 185.831 183.355 188.327 190.062 190.798C194.329 192.369 198.568 193.931 204.103 194.724C205.714 194.955 207.018 194.253 207.8 193.169C208.437 192.375 208.785 191.33 208.62 190.149C207.296 180.688 201.609 171.488 195.959 162.348C188.623 150.48 181.349 138.713 183.771 126.608C185.509 117.918 193.853 112.846 201.982 107.905C206.683 105.048 211.311 102.235 214.55 98.7908C218.737 94.3371 221.05 87.4552 221.228 84.2587C222.273 81.9459 219.275 79.4355 217.122 81.2419C197.752 97.496 172.408 90.2537 169.636 63.193C168.992 56.9001 170.478 50.7961 171.966 44.6886C173.544 38.2127 175.122 31.7328 174.162 25.0196C172.983 16.7838 167.437 10.227 160.761 5.63419ZM105.371 57.0089C113.405 45.4093 112.071 37.2249 108.738 34.0838C113.324 34.0875 118.2 34.6636 123.118 35.2446C135.7 36.7312 148.557 38.2502 157.547 30.3008C161.218 27.0541 162.661 20.7496 161.924 14.7681C161.703 12.9692 161.332 11.3114 160.782 9.81673C168.293 16.5422 171.54 29.3717 166.652 37.7878C160.594 48.2198 156.926 69.801 171.208 85.842C180.076 95.8033 192.518 98.7557 204.971 94.0796C207.269 93.2166 210.302 92.0002 213.184 90.5105C209.394 95.9195 202.862 99.0833 196.184 102.317C184.28 108.083 171.914 114.072 173.804 133.406C174.817 143.758 179.779 149.971 185.049 156.57C188.328 160.676 191.726 164.93 194.367 170.424C196.412 174.679 197.499 178.412 198.218 181.615C187.52 175.526 175.352 172.182 162.898 171.28C169.221 166.382 172.171 160.978 173.155 156.517C173.532 154.812 171.494 153.959 170.167 155.094C164.691 159.78 152.56 168.508 134.354 172.606C113.548 177.289 98.7897 173.721 89.5859 170.424C87.791 169.781 86.4047 171.528 87.7652 172.864C91.9136 176.937 98.7201 181.07 108.432 182.967C106.986 183.759 105.569 184.588 104.183 185.454C95.9775 190.576 83.9501 200.109 77.3213 210.512C76.2491 202.559 76.9066 194.154 77.5566 185.844C79.1013 166.1 80.6036 146.896 58.7564 135.572C47.8618 129.925 34.9833 131.258 26.2516 139.536C29.546 134.286 33.9647 129.524 38.3355 124.813C49.7653 112.494 60.8683 100.528 50.6854 81.1107C47.8644 75.7315 43.8259 71.2116 39.8061 66.7126C39.1233 65.9485 38.4411 65.185 37.7655 64.4179C31.6982 57.5296 26.8429 50.0444 29.4762 40.5588C30.7485 70.8922 59.9388 54.1202 76.9713 44.3338C80.2127 42.4713 83.0139 40.8618 85.0984 39.8782C94.6588 35.3671 103.599 41.38 105.371 57.0089Z" fill="#E096C3"/>
<path d="M85.736 98.7931C95.1163 83.021 128.775 77.2143 142.904 87.0522C155.465 95.7976 158.762 112.163 150.749 125.25C143.173 137.623 104.065 143.059 93.5806 136.991C80.2797 129.292 77.7681 112.19 85.736 98.7931Z" fill="white"/>
<path d="M154.974 107.408C155.55 113.384 154.196 119.62 150.749 125.25C143.172 137.623 104.065 143.059 93.5804 136.99C83.1893 130.976 79.3832 119.223 82.0143 107.98C82.5159 124.669 96.011 129 122.5 129C140.946 129 153.863 122.195 154.974 107.408Z" fill="#F0F0F0"/>
<path fill-rule="evenodd" clip-rule="evenodd" d="M79.1117 92.1875C84.1486 82.2235 92.5097 75.4994 103.805 72.4544C105.405 72.0231 106.457 70.4467 106.124 68.8237L105.112 63.8953C104.764 62.2003 103.082 61.1714 101.468 61.7952C98.4708 62.9534 93.6216 65.1712 88.7575 68.8501C85.7575 70.9035 83.3356 67.1117 85.3731 65.3759C87.6169 63.5937 89.9597 62.1346 92.5001 60.7673C99.5001 56.9997 94.0001 51.2322 87.5001 55.9997C81.0001 60.7673 73.5001 67.9998 71.5001 77.4998C71.0001 79.8748 72.4583 81.6664 73.9374 78.9997C75.607 76.2458 77.2339 73.9118 78.8612 71.8964C79.0114 71.7103 79.1617 71.527 79.312 71.3462C81.371 69.3278 84.479 72.1671 81.6921 75.4998C78.1449 79.7016 75.1783 84.9729 73.7411 91.5207C73.0051 94.874 77.5629 95.2514 79.1117 92.1875ZM119.327 70.022C129.468 69.6642 138.444 73.2045 145.558 78.5188C148.32 80.5817 152.758 78.0257 150.662 75.2892C140.505 62.0283 124.761 59.3742 117.791 58.864C115.945 58.7288 114.603 60.4034 114.976 62.2167L116.071 67.5511C116.381 69.0602 117.787 70.0763 119.327 70.022ZM77.0001 99.4998C77.0001 100.88 75.8808 102 74.5001 102C73.1194 102 72.0001 100.88 72.0001 99.4998C72.0001 98.1191 73.1194 96.9998 74.5001 96.9998C75.8808 96.9998 77.0001 98.1191 77.0001 99.4998ZM155 81.4998C155 82.8805 153.881 83.9998 152.5 83.9998C151.119 83.9998 150 82.8805 150 81.4998C150 80.1191 151.119 78.9998 152.5 78.9998C153.881 78.9998 155 80.1191 155 81.4998ZM159 86.4998C159 87.8805 157.881 88.9998 156.5 88.9998C155.119 88.9998 154 87.8805 154 86.4998C154 85.1191 155.119 83.9998 156.5 83.9998C157.881 83.9998 159 85.1191 159 86.4998ZM146.695 140.219C151.069 141.18 153.793 145.059 155.278 148.373C155.652 149.206 156.887 149.264 157.209 148.41C158.597 144.727 158.359 142.249 155.152 139C152.639 137.28 149.252 137.217 146.218 138.228C145.213 138.563 145.661 139.992 146.695 140.219ZM149.567 142.899C143.908 155.714 117.691 162.338 102.449 152.058C102.449 152.058 100.39 151.949 100.772 153.912C104.124 157.878 115.587 165.437 129.061 163.184C142.229 160.983 150.325 150.203 152.007 144.971C151.626 143.008 149.567 142.899 149.567 142.899ZM97.3333 159.149C96.9827 152.071 102.5 148.878 107.996 147.108C108.8 146.848 108.948 145.826 108.158 145.524C104.425 144.1 99.0236 144.672 95.9999 148.5C93.1384 152.123 93.5655 156.632 95.7689 159.901C96.307 160.7 97.3809 160.11 97.3333 159.149ZM121.199 122.345C126.338 121.29 129.649 116.268 128.593 111.129C127.538 105.989 122.516 102.678 117.377 103.734C112.237 104.789 108.926 109.811 109.982 114.951C111.037 120.09 116.059 123.401 121.199 122.345Z" fill="#BA6598"/>
<path d="M119.712 103.547C122.896 103.687 125.795 105.431 127.424 108.13C126.831 109.336 125.707 110.265 124.289 110.556C121.855 111.056 119.476 109.487 118.976 107.053C118.715 105.783 119.017 104.528 119.712 103.547Z" fill="#F5B9DD"/>
</svg>
