<svg width="698" height="230" viewBox="0 0 698 230" fill="none" xmlns="http://www.w3.org/2000/svg">
<path d="M376.58 36.8001C372.046 36.8001 368.813 36.0668 366.88 34.6001C365.013 33.1334 364.08 30.6668 364.08 27.2001C364.08 23.7334 365.013 21.2668 366.88 19.8001C368.813 18.3334 372.046 17.6001 376.58 17.6001C381.113 17.6001 384.313 18.3334 386.18 19.8001C388.113 21.2668 389.08 23.7334 389.08 27.2001C389.08 30.6668 388.113 33.1334 386.18 34.6001C384.313 36.0668 381.113 36.8001 376.58 36.8001Z" fill="url(#paint0_linear)"/>
<path d="M365.08 90.0001V40.0001H388.08V90.0001H365.08Z" fill="url(#paint1_linear)"/>
<path d="M285.7 23.0001C292.233 23.0001 297.8 23.7668 302.4 25.3001C307 26.8334 311.567 29.5668 316.1 33.5001L305.9 48.0001C302.9 45.2001 299.833 43.2001 296.7 42.0001C293.633 40.7334 290.2 40.1001 286.4 40.1001C284.067 40.1001 282.2 40.4668 280.8 41.2001C279.4 41.8668 278.7 42.7668 278.7 43.9001C278.7 44.6334 279.367 45.2001 280.7 45.6001C282.033 46.0001 284.367 46.5001 287.7 47.1001C297.367 48.8334 304.3 51.4668 308.5 55.0001C312.767 58.4668 314.9 63.3668 314.9 69.7001C314.9 74.2334 313.6 78.1001 311 81.3001C308.4 84.5001 304.867 86.9334 300.4 88.6001C295.933 90.2001 290.933 91.0001 285.4 91.0001C277.6 91.0001 271.367 90.2668 266.7 88.8001C262.033 87.3334 257.467 84.9666 253 81.6999C249.984 79.79 247.605 77.2935 245.279 74.8528C240.663 70.0093 236.256 65.3852 227.5 65.9997C214.385 66.9202 209.317 73.2409 204.451 79.3093C198.743 86.4277 193.314 93.199 175.5 90.5L179 84.4999C188.834 91.7461 193.31 85.062 199.223 76.2333C204.734 68.0043 211.492 57.9121 225 55.5C238.508 53.0879 251.5 54.6739 263 65.9001C265.8 68.6334 268.867 70.6668 272.2 72.0001C275.533 73.2668 279.367 73.9001 283.7 73.9001C288.567 73.9001 291 72.9001 291 70.9001C291 69.8334 290.233 69.0334 288.7 68.5001C287.167 67.9668 284.667 67.4001 281.2 66.8001C276.133 65.8668 271.8 64.8001 268.2 63.6001C264.667 62.4001 261.533 60.3668 258.8 57.5001C256.133 54.6334 254.8 50.7001 254.8 45.7001C254.8 41.1668 256 37.2001 258.4 33.8001C260.8 30.4001 264.3 27.7668 268.9 25.9001C273.567 23.9668 279.167 23.0001 285.7 23.0001Z" fill="url(#paint2_linear)"/>
<path d="M353.948 90.0001C356.815 89.4001 359.082 88.6001 360.748 87.6001L359.748 74.6001C358.015 75.4668 355.915 75.9001 353.448 75.9001C351.382 75.9001 349.848 75.4334 348.848 74.5001C347.915 73.5001 347.448 71.8668 347.448 69.6001V55.5001H360.048V40.0001H347.448V23.0001L324.448 29.4001V40.0001H316.748V55.5001H324.448V73.2001C324.448 79.5334 326.215 84.1001 329.748 86.9001C333.282 89.6334 338.648 91.0001 345.848 91.0001C348.448 91.0001 351.148 90.6668 353.948 90.0001Z" fill="url(#paint3_linear)"/>
<path d="M465.741 39.0001C470.675 39.0001 474.508 40.4668 477.241 43.4001C480.041 46.3334 481.441 50.4668 481.441 55.8001V90.0001H458.441V61.8001C458.441 59.6001 458.175 58.1001 457.641 57.3001C457.108 56.4334 456.208 56.0001 454.941 56.0001C453.275 56.0001 452.041 56.6334 451.241 57.9001C450.508 59.1668 450.141 61.1334 450.141 63.8001V90.0001H427.141V61.8001C427.141 59.6001 426.875 58.1001 426.341 57.3001C425.808 56.4334 424.908 56.0001 423.641 56.0001C421.975 56.0001 420.741 56.6334 419.941 57.9001C419.208 59.1668 418.841 61.1334 418.841 63.8001V90.0001H395.841V40.0001H416.541L417.041 50.9001C418.508 47.0334 420.708 44.1001 423.641 42.1001C426.575 40.0334 430.175 39.0001 434.441 39.0001C438.241 39.0001 441.375 39.8668 443.841 41.6001C446.375 43.3334 448.175 45.8001 449.241 49.0001C450.841 45.7334 453.008 43.2668 455.741 41.6001C458.541 39.8668 461.875 39.0001 465.741 39.0001Z" fill="url(#paint4_linear)"/>
<path d="M543.303 40.0001V90.0001H522.603L522.103 79.4001C520.636 83.2668 518.47 86.1668 515.603 88.1001C512.803 90.0334 509.336 91.0001 505.203 91.0001C499.87 91.0001 495.836 89.6334 493.103 86.9001C490.37 84.1001 489.003 79.7334 489.003 73.8001V40.0001H512.003V68.1001C512.003 70.3001 512.27 71.8334 512.803 72.7001C513.403 73.5668 514.37 74.0001 515.703 74.0001C518.77 74.0001 520.303 71.3668 520.303 66.1001V40.0001H543.303Z" fill="url(#paint5_linear)"/>
<path d="M574.115 70.1001C574.115 72.1668 574.415 73.6668 575.015 74.6001C575.615 75.4668 576.682 75.9001 578.215 75.9001C579.415 75.9001 580.615 75.7334 581.815 75.4001L580.815 87.8001C579.615 88.7334 577.815 89.5001 575.415 90.1001C573.015 90.7001 570.682 91.0001 568.415 91.0001C562.215 91.0001 557.781 89.6668 555.115 87.0001C552.448 84.3334 551.115 79.8668 551.115 73.6001V20.0001H574.115V70.1001Z" fill="url(#paint6_linear)"/>
<path d="M639.397 40.0001V90.0001H618.697L618.197 79.4001C616.73 83.2668 614.564 86.1668 611.697 88.1001C608.897 90.0334 605.43 91.0001 601.297 91.0001C595.964 91.0001 591.93 89.6334 589.197 86.9001C586.464 84.1001 585.097 79.7334 585.097 73.8001V40.0001H608.097V68.1001C608.097 70.3001 608.364 71.8334 608.897 72.7001C609.497 73.5668 610.464 74.0001 611.797 74.0001C614.864 74.0001 616.397 71.3668 616.397 66.1001V40.0001H639.397Z" fill="url(#paint7_linear)"/>
<path d="M670.409 91.0001C664.209 91.0001 658.975 90.4334 654.709 89.3001C650.442 88.1001 646.842 86.2001 643.909 83.6001L654.009 71.4001C655.942 73.1334 658.175 74.5334 660.709 75.6001C663.242 76.6668 665.909 77.2001 668.709 77.2001C669.975 77.2001 671.009 77.1001 671.809 76.9001C672.675 76.6334 673.109 76.2334 673.109 75.7001C673.109 75.1001 672.542 74.5668 671.409 74.1001C670.275 73.5668 668.342 73.0334 665.609 72.5001C658.409 71.1001 653.142 69.1001 649.809 66.5001C646.542 63.8334 644.909 60.4668 644.909 56.4001C644.909 53.4668 645.875 50.7001 647.809 48.1001C649.809 45.4334 652.842 43.2668 656.909 41.6001C660.975 39.8668 666.009 39.0001 672.009 39.0001C677.875 39.0001 682.775 39.7001 686.709 41.1001C690.709 42.5001 693.842 44.2334 696.109 46.3001L686.709 57.4001C683.642 54.3334 679.109 52.8001 673.109 52.8001C671.309 52.8001 670.009 52.9668 669.209 53.3001C668.409 53.6334 668.009 54.0668 668.009 54.6001C668.009 55.4001 670.042 56.0668 674.109 56.6001C681.775 57.6668 687.375 59.5334 690.909 62.2001C694.442 64.8001 696.209 68.4001 696.209 73.0001C696.209 78.2001 694.075 82.5001 689.809 85.9001C685.542 89.3001 679.075 91.0001 670.409 91.0001Z" fill="url(#paint8_linear)"/>
<path d="M188.5 112C183.904 108.439 178.35 123.069 192.5 113C202.979 105.544 214.266 110.164 229.166 116.262C242.74 121.818 259.311 128.6 281 128.6H288.1C291.033 128.6 293.1 129.067 294.3 130C295.567 130.933 296.2 132.5 296.2 134.7C296.2 136.967 295.567 138.567 294.3 139.5C293.1 140.367 291.033 140.8 288.1 140.8L257 140.8V178H279.8V156.1H286.2L297.9 178H323.2L307.6 153.6C315.533 150.267 319.5 143.767 319.5 134.1C319.5 126.767 317.233 121.267 312.7 117.6C308.233 113.867 301.6 112 292.8 112H274.716C257.32 111.648 244.581 108.168 233.997 105.276C216.717 100.555 205.182 97.4031 188.5 112Z" fill="url(#paint9_linear)"/>
<path d="M423.409 128H409.209V127.2C409.209 124.933 409.842 123.333 411.109 122.4C412.442 121.467 414.375 121 416.909 121C418.242 121 419.342 121.133 420.209 121.4C421.075 121.667 421.875 122.067 422.609 122.6L424.109 109.3C421.242 107.1 416.742 106 410.609 106C404.075 106 398.642 107.6 394.309 110.8C389.975 113.933 387.809 119 387.809 126V128H381.109V143.5H387.809V178H410.809V143.5H423.409V128Z" fill="url(#paint10_linear)"/>
<path d="M450.709 158.1C450.709 160.167 451.009 161.667 451.609 162.6C452.209 163.467 453.275 163.9 454.809 163.9C456.009 163.9 457.209 163.733 458.409 163.4L457.409 175.8C456.209 176.733 454.409 177.5 452.009 178.1C449.609 178.7 447.275 179 445.009 179C438.809 179 434.375 177.667 431.709 175C429.042 172.333 427.709 167.867 427.709 161.6V108H450.709V158.1Z" fill="url(#paint11_linear)"/>
<path fill-rule="evenodd" clip-rule="evenodd" d="M378.808 151.4C378.808 153.933 378.641 155.933 378.308 157.4H346.508C346.841 159.867 347.541 161.533 348.608 162.4C349.674 163.267 351.274 163.7 353.408 163.7C356.674 163.7 358.674 162.267 359.408 159.4L377.908 164.4C376.774 169.2 373.974 172.833 369.508 175.3C365.108 177.767 359.741 179 353.408 179C343.941 179 336.741 176.767 331.808 172.3C326.941 167.833 324.508 161.4 324.508 153C324.508 144.733 326.908 138.333 331.708 133.8C336.574 129.267 343.408 127 352.208 127C360.808 127 367.374 129.2 371.908 133.6C376.508 138 378.808 143.933 378.808 151.4ZM352.308 142.2C350.574 142.2 349.241 142.7 348.308 143.7C347.374 144.7 346.774 146.433 346.508 148.9H357.308C357.108 146.633 356.608 144.967 355.808 143.9C355.074 142.767 353.908 142.2 352.308 142.2Z" fill="url(#paint12_linear)"/>
<path fill-rule="evenodd" clip-rule="evenodd" d="M514.257 151.4C514.257 153.933 514.09 155.933 513.757 157.4H481.957C482.29 159.867 482.99 161.533 484.057 162.4C485.124 163.267 486.724 163.7 488.857 163.7C492.124 163.7 494.124 162.267 494.857 159.4L513.357 164.4C512.224 169.2 509.424 172.833 504.957 175.3C500.557 177.767 495.19 179 488.857 179C479.39 179 472.19 176.767 467.257 172.3C462.39 167.833 459.957 161.4 459.957 153C459.957 144.733 462.357 138.333 467.157 133.8C472.024 129.267 478.857 127 487.657 127C496.257 127 502.824 129.2 507.357 133.6C511.957 138 514.257 143.933 514.257 151.4ZM487.757 142.2C486.024 142.2 484.69 142.7 483.757 143.7C482.824 144.7 482.224 146.433 481.957 148.9H492.757C492.557 146.633 492.057 144.967 491.257 143.9C490.524 142.767 489.357 142.2 487.757 142.2Z" fill="url(#paint13_linear)"/>
<path d="M544.233 162.7L551.533 178H576.933L559.633 153L576.533 128H551.433L544.533 142.5L537.833 128H512.433L529.333 152.6L512.033 178H537.133L544.233 162.7Z" fill="url(#paint14_linear)"/>
<path d="M143.199 36.5891C153.62 26.319 147.018 15.8775 138.804 12.6147C137.293 12.0144 136.41 8.7386 138.034 8.6557C152.861 7.89883 169.858 29.9538 156.989 44.0791C144.454 57.8371 140.376 43.1659 143.199 36.5891Z" fill="#BA6598"/>
<path d="M48.3511 45.1531C48.1685 39.7313 47.9399 32.9397 43.1139 26.0434C41.7712 24.1247 39.0761 26.5381 39.5632 28.8287C40.5173 33.3149 39.4278 37.0417 38.3657 40.6753C36.5591 46.8554 34.8314 52.7658 43.3715 61.6837C52.1637 70.865 60.9711 60.8312 58.1725 56.5917C48.7407 56.7244 48.5831 52.0454 48.3511 45.1531Z" fill="#BA6598"/>
<path d="M30.8565 161.769C30.5627 143.348 44.6238 130.664 49.8828 127.921L67.0165 141.757C64.615 142.751 61.9398 143.467 59.1766 144.207C50.3844 146.56 40.7014 149.151 36.108 161.706C35.0014 164.731 30.9079 164.989 30.8565 161.769Z" fill="#BA6598"/>
<path d="M43.8175 130.697C28.4287 138.412 14.1041 139.864 3.22785 130.752C0.898102 128.8 3.47478 125.32 6.46981 125.836C20.422 128.243 35.9804 124.204 39.1426 117.876C42.3261 111.505 43.8204 124.912 43.8175 130.697Z" fill="#BA6598"/>
<path d="M165.488 69.4692C173.831 92.4294 191.706 101.51 214.088 86.0073C215.531 85.0076 217.456 86.1157 216.864 87.7685C210.689 105.003 179.069 99.5523 177.558 128.243C176.262 152.844 198.534 158.683 203.129 186.533C203.404 188.203 201.536 189.353 200.067 188.512C166.053 169.045 100.739 179.275 77.7599 219.06C76.8795 220.585 74.5725 220.438 74.06 218.754C65.016 189.03 82.4296 173.671 69.2296 152.532C59.359 136.725 33.6129 127.455 21.1585 151.399C20.1414 153.354 17.1579 152.89 17.446 150.705C20.8444 124.929 49.2546 122.593 49.8257 97.8167C50.3777 73.8704 18.2532 64.3319 25.5914 40.498C26.2744 38.2796 30.1177 39.6836 30.4419 41.9821C31.823 51.7769 39.6364 57.5431 49.3135 55.5557C63.0273 52.7393 76.265 35.2181 98.8027 30.5895C118.419 26.5608 139.337 36.8497 149.215 32.4867C159.862 27.7839 161.519 20.765 158.184 13.0302C157.294 10.9684 159.641 8.61691 161.289 10.1419C181.682 29.0129 157.627 47.8377 165.488 69.4692Z" fill="#F5B9DD"/>
<path d="M18.0149 147.523C20.4572 136.814 27.4841 130.434 34.3151 124.231C42.0509 117.207 49.5353 110.411 49.8256 97.8162C49.966 91.7264 47.993 86.5684 45.0933 81.8701L47 77.9997C61.4883 101.481 55.5096 122.965 35.5482 137.964C32.165 139.111 28.9371 141.156 26.0627 144.279C22.5635 146.24 19.9387 147.196 18.0149 147.523Z" fill="#FFD9F0"/>
<path d="M73.7618 217.745C73.6996 217.529 73.6388 217.313 73.5794 217.099C75.1309 202.546 90.1534 179.928 97.5 176.5C103.5 173.7 114.667 180.333 119.5 184C102.085 193.454 91.6022 200.432 73.7618 217.745Z" fill="#FFD9F0"/>
<path d="M194.098 185.532C190.433 183.944 186.505 182.642 182.385 181.628L182 181.5C183.875 171.188 180.696 164.501 177.357 157.474C173.571 149.51 169.578 141.109 172.5 126.5L178.212 137.241C179.84 144.94 184.063 150.728 188.628 156.829L202.334 182.606C202.638 183.865 202.904 185.173 203.129 186.532C203.251 187.272 202.952 187.91 202.454 188.318L194.098 185.532Z" fill="#FFD9F0"/>
<path d="M163.884 58.3448C163.713 61.9768 164.111 65.6797 165.487 69.4687C173.831 92.429 191.706 101.509 214.087 86.0068C215.531 85.0071 217.456 86.1152 216.864 87.768C214.286 94.9634 207.272 98.2047 199.866 101.627C198.566 102.228 197.253 102.835 195.949 103.47C183.908 105.284 169.931 100.454 165.5 89.9997C160.046 77.1342 161.041 67.0268 163.884 58.3448Z" fill="#FFD9F0"/>
<path d="M163.576 12.4597C163.552 12.6355 163.527 12.8154 163.5 12.9995C169.318 33.9948 156.548 46.7972 142.5 48.9995C135.387 50.1147 130.408 48.7294 124.683 47.1367C119.367 45.6575 113.408 43.9996 104.5 43.9996C93.4935 43.9996 84.0188 47.5289 74.9787 50.8962C61.7064 55.8401 49.371 60.435 34.5 52.9995C34.426 52.2969 34.3598 51.6015 34.2997 50.9122C37.7718 54.9517 43.1666 56.8176 49.3134 55.5553C55.323 54.3211 61.2412 50.263 67.8907 45.7035C76.4151 39.8584 86.1414 33.1892 98.8026 30.589C109.1 28.4742 119.756 30.3047 128.985 31.89C137.338 33.3248 144.522 34.5589 149.215 32.4862C159.862 27.7834 161.519 20.7645 158.183 13.0297C157.294 10.9679 159.641 8.61643 161.289 10.1414C162.124 10.9142 162.885 11.6869 163.576 12.4597Z" fill="#FFD9F0"/>
<path d="M101.5 152C117.5 154.5 133.5 151 148.5 143C147.08 151.518 140.562 155.801 132 158.5C121.811 161.711 109.105 159.605 101.5 152Z" fill="#FFD9F0"/>
<path d="M159.5 104C133.334 122.666 97.2959 143.839 75.5002 120C59.5002 102.5 89.4622 67.7726 110 65.1328C130.58 62.4876 168.5 76.4997 159.5 104Z" fill="#FFD9F0"/>
<path d="M85 161C87.7614 161 90 158.761 90 156C90 153.239 87.7614 151 85 151C82.2386 151 80 153.239 80 156C80 158.761 82.2386 161 85 161Z" fill="#E096C3"/>
<path d="M163 141.5C163 142.881 161.881 144 160.5 144C159.119 144 158 142.881 158 141.5C158 140.119 159.119 139 160.5 139C161.881 139 163 140.119 163 141.5Z" fill="#E096C3"/>
<path d="M164.5 137C165.881 137 167 135.881 167 134.5C167 133.119 165.881 132 164.5 132C163.119 132 162 133.119 162 134.5C162 135.881 163.119 137 164.5 137Z" fill="#E096C3"/>
<path d="M170 140.5C170 141.881 168.881 143 167.5 143C166.119 143 165 141.881 165 140.5C165 139.119 166.119 138 167.5 138C168.881 138 170 139.119 170 140.5Z" fill="#E096C3"/>
<path d="M146.123 82.5655C129.514 69.7636 90.6312 76.3419 80.1244 96.12C71.1995 112.92 74.5093 134.66 90.1076 144.731C101.283 151.945 108.531 150.485 119.408 148.294C121.107 147.952 122.896 147.592 124.802 147.244C125.337 147.146 125.868 147.05 126.394 146.955C139.327 144.611 149.787 142.716 156.107 131.176C165.091 114.771 160.888 93.9457 146.123 82.5655Z" fill="#E096C3"/>
<path fill-rule="evenodd" clip-rule="evenodd" d="M159.761 5.63419C157.56 4.11991 155.646 3.31442 154.112 2.97483C153.843 2.82753 153.564 2.68816 153.277 2.55689C151.208 1.6113 148.861 3.08679 150.326 4.77317C157.955 13.5523 162.578 29.541 145.49 31.1346C138.361 31.7995 131.301 30.0663 124.22 28.3279C115.482 26.1827 106.712 24.0296 97.7402 26.365C90.2581 28.1067 81.3705 34.1322 72.5759 40.0946C61.5813 47.5486 50.7322 54.9039 42.9569 53.6672C32.1176 51.9433 30.7847 37.4118 33.4049 31.2588C34.3663 29.1628 34.8222 27.3133 33.8925 26.3905C33.0071 25.5118 31.5305 25.6101 30.7498 26.5724C13.3973 47.9574 23.0831 59.7 33.1844 71.9462C40.3324 80.612 47.6884 89.53 45.8188 102.295C44.4554 111.604 37.7931 118.14 31.0931 124.713C26.147 129.565 21.1804 134.437 18.3097 140.46C15.8141 145.696 12.2582 156.347 14.747 162.107C14.8373 162.36 14.9614 162.587 15.1119 162.788C15.7367 163.679 16.7226 164.001 17.6623 163.884C18.6775 163.804 19.6526 163.213 20.0671 162.05C28.0711 139.584 52.2257 134.4 65.8556 155.847C72.1366 165.731 70.8368 177.967 69.5462 190.116C68.7495 197.616 67.9564 205.082 68.9518 211.942C69.0433 212.573 69.1306 213.301 69.2252 214.091C69.7053 218.1 70.3741 223.685 72.7463 226.044C73.8852 227.177 75.2946 227.405 76.5368 227.044C77.5247 226.828 78.4459 226.232 79.0623 225.186C95.6019 197.112 132.981 187.315 163.59 186.248C175.577 185.831 182.355 188.327 189.062 190.798C193.329 192.369 197.568 193.931 203.103 194.724C204.714 194.955 206.018 194.253 206.8 193.169C207.437 192.375 207.785 191.33 207.62 190.149C206.296 180.688 200.609 171.488 194.959 162.348C187.623 150.48 180.349 138.713 182.771 126.608C184.509 117.918 192.853 112.846 200.982 107.905C205.683 105.048 210.311 102.235 213.55 98.7908C217.737 94.3371 220.05 87.4552 220.228 84.2587C221.273 81.9459 218.275 79.4355 216.122 81.2419C196.752 97.496 171.408 90.2537 168.636 63.193C167.992 56.9001 169.478 50.7961 170.966 44.6886C172.544 38.2127 174.122 31.7328 173.162 25.0196C171.983 16.7838 166.437 10.227 159.761 5.63419ZM104.371 57.0089C112.405 45.4093 111.071 37.2249 107.738 34.0838C112.324 34.0875 117.2 34.6636 122.118 35.2446C134.7 36.7312 147.557 38.2502 156.547 30.3008C160.218 27.0541 161.661 20.7496 160.924 14.7681C160.703 12.9692 160.332 11.3114 159.782 9.81673C167.293 16.5422 170.54 29.3717 165.652 37.7878C159.594 48.2198 155.926 69.801 170.208 85.842C179.076 95.8033 191.518 98.7557 203.971 94.0796C206.269 93.2166 209.302 92.0002 212.184 90.5105C208.394 95.9195 201.862 99.0833 195.184 102.317C183.28 108.083 170.914 114.072 172.804 133.406C173.817 143.758 178.779 149.971 184.049 156.57C187.328 160.676 190.726 164.93 193.367 170.424C195.412 174.679 196.499 178.412 197.218 181.615C186.52 175.526 174.352 172.182 161.898 171.28C168.221 166.382 171.171 160.978 172.155 156.517C172.532 154.812 170.494 153.959 169.167 155.094C163.691 159.78 151.56 168.508 133.354 172.606C112.548 177.289 97.7897 173.721 88.5859 170.424C86.791 169.781 85.4047 171.528 86.7652 172.864C90.9136 176.937 97.7201 181.07 107.432 182.967C105.986 183.759 104.569 184.588 103.183 185.454C94.9775 190.576 82.9501 200.109 76.3213 210.512C75.2491 202.559 75.9066 194.154 76.5566 185.844C78.1013 166.1 79.6036 146.896 57.7564 135.572C46.8618 129.925 33.9833 131.258 25.2516 139.536C28.546 134.286 32.9647 129.524 37.3355 124.813C48.7653 112.494 59.8683 100.528 49.6854 81.1107C46.8644 75.7315 42.8259 71.2116 38.8061 66.7126C38.1233 65.9485 37.4411 65.185 36.7655 64.4179C30.6982 57.5296 25.8429 50.0444 28.4762 40.5588C29.7485 70.8922 58.9388 54.1202 75.9713 44.3338C79.2127 42.4713 82.0139 40.8618 84.0984 39.8782C93.6588 35.3671 102.599 41.38 104.371 57.0089Z" fill="#E096C3"/>
<path d="M84.736 98.7931C94.1163 83.021 127.775 77.2143 141.904 87.0522C154.465 95.7976 157.762 112.163 149.749 125.25C142.173 137.623 103.065 143.059 92.5806 136.991C79.2797 129.292 76.7681 112.19 84.736 98.7931Z" fill="white"/>
<path d="M153.974 107.408C154.55 113.384 153.196 119.62 149.749 125.25C142.173 137.623 103.065 143.059 92.5806 136.99C82.1895 130.976 78.3834 119.223 81.0145 107.98C81.5161 124.669 95.0113 129 121.5 129C139.946 129 152.863 122.195 153.974 107.408Z" fill="#F0F0F0"/>
<path fill-rule="evenodd" clip-rule="evenodd" d="M78.1117 92.1875C83.1486 82.2235 91.5097 75.4994 102.805 72.4544C104.405 72.0231 105.457 70.4467 105.124 68.8237L104.112 63.8953C103.764 62.2003 102.082 61.1714 100.468 61.7952C97.4708 62.9534 92.6216 65.1712 87.7575 68.8501C84.7575 70.9035 82.3356 67.1117 84.3731 65.3759C86.6169 63.5937 88.9597 62.1346 91.5001 60.7673C98.5001 56.9997 93.0001 51.2322 86.5001 55.9997C80.0001 60.7673 72.5001 67.9998 70.5001 77.4998C70.0001 79.8748 71.4583 81.6664 72.9374 78.9997C74.607 76.2458 76.2339 73.9118 77.8612 71.8964C78.0114 71.7103 78.1617 71.527 78.312 71.3462C80.371 69.3278 83.479 72.1671 80.6921 75.4998C77.1449 79.7016 74.1783 84.9729 72.7411 91.5207C72.0051 94.874 76.5629 95.2514 78.1117 92.1875ZM118.327 70.022C128.468 69.6642 137.444 73.2045 144.558 78.5188C147.32 80.5817 151.758 78.0257 149.662 75.2892C139.505 62.0283 123.761 59.3742 116.791 58.864C114.945 58.7288 113.603 60.4034 113.976 62.2167L115.071 67.5511C115.381 69.0602 116.787 70.0763 118.327 70.022ZM76.0001 99.4998C76.0001 100.88 74.8808 102 73.5001 102C72.1194 102 71.0001 100.88 71.0001 99.4998C71.0001 98.1191 72.1194 96.9998 73.5001 96.9998C74.8808 96.9998 76.0001 98.1191 76.0001 99.4998ZM154 81.4998C154 82.8805 152.881 83.9998 151.5 83.9998C150.119 83.9998 149 82.8805 149 81.4998C149 80.1191 150.119 78.9998 151.5 78.9998C152.881 78.9998 154 80.1191 154 81.4998ZM158 86.4998C158 87.8805 156.881 88.9998 155.5 88.9998C154.119 88.9998 153 87.8805 153 86.4998C153 85.1191 154.119 83.9998 155.5 83.9998C156.881 83.9998 158 85.1191 158 86.4998ZM145.695 140.219C150.069 141.18 152.793 145.059 154.278 148.373C154.652 149.206 155.887 149.264 156.209 148.41C157.597 144.727 157.359 142.249 154.152 139C151.639 137.28 148.252 137.217 145.218 138.228C144.213 138.563 144.661 139.992 145.695 140.219ZM148.567 142.899C142.908 155.714 116.691 162.338 101.449 152.058C101.449 152.058 99.3903 151.949 99.7719 153.912C103.124 157.878 114.587 165.437 128.061 163.184C141.229 160.983 149.325 150.203 151.007 144.971C150.626 143.008 148.567 142.899 148.567 142.899ZM96.3333 159.149C95.9827 152.071 101.5 148.878 106.996 147.108C107.8 146.848 107.948 145.826 107.158 145.524C103.425 144.1 98.0236 144.672 94.9999 148.5C92.1384 152.123 92.5655 156.632 94.7689 159.901C95.307 160.7 96.3809 160.11 96.3333 159.149ZM120.199 122.345C125.338 121.29 128.649 116.268 127.594 111.129C126.538 105.989 121.516 102.678 116.377 103.734C111.237 104.789 107.926 109.811 108.982 114.951C110.037 120.09 115.059 123.401 120.199 122.345Z" fill="#BA6598"/>
<path d="M118.712 103.547C121.896 103.687 124.795 105.431 126.424 108.13C125.831 109.336 124.707 110.265 123.289 110.556C120.855 111.056 118.476 109.487 117.976 107.053C117.715 105.783 118.017 104.528 118.712 103.547Z" fill="#F5B9DD"/>
<defs>
<linearGradient id="paint0_linear" x1="204.5" y1="119" x2="256.5" y2="119" gradientUnits="userSpaceOnUse">
<stop stop-color="#BA6598"/>
<stop offset="1" stop-color="#404040"/>
</linearGradient>
<linearGradient id="paint1_linear" x1="204.5" y1="119" x2="256.5" y2="119" gradientUnits="userSpaceOnUse">
<stop stop-color="#BA6598"/>
<stop offset="1" stop-color="#404040"/>
</linearGradient>
<linearGradient id="paint2_linear" x1="204.5" y1="119" x2="256.5" y2="119" gradientUnits="userSpaceOnUse">
<stop stop-color="#BA6598"/>
<stop offset="1" stop-color="#404040"/>
</linearGradient>
<linearGradient id="paint3_linear" x1="204.5" y1="119" x2="256.5" y2="119" gradientUnits="userSpaceOnUse">
<stop stop-color="#BA6598"/>
<stop offset="1" stop-color="#404040"/>
</linearGradient>
<linearGradient id="paint4_linear" x1="204.5" y1="119" x2="256.5" y2="119" gradientUnits="userSpaceOnUse">
<stop stop-color="#BA6598"/>
<stop offset="1" stop-color="#404040"/>
</linearGradient>
<linearGradient id="paint5_linear" x1="204.5" y1="119" x2="256.5" y2="119" gradientUnits="userSpaceOnUse">
<stop stop-color="#BA6598"/>
<stop offset="1" stop-color="#404040"/>
</linearGradient>
<linearGradient id="paint6_linear" x1="204.5" y1="119" x2="256.5" y2="119" gradientUnits="userSpaceOnUse">
<stop stop-color="#BA6598"/>
<stop offset="1" stop-color="#404040"/>
</linearGradient>
<linearGradient id="paint7_linear" x1="204.5" y1="119" x2="256.5" y2="119" gradientUnits="userSpaceOnUse">
<stop stop-color="#BA6598"/>
<stop offset="1" stop-color="#404040"/>
</linearGradient>
<linearGradient id="paint8_linear" x1="204.5" y1="119" x2="256.5" y2="119" gradientUnits="userSpaceOnUse">
<stop stop-color="#BA6598"/>
<stop offset="1" stop-color="#404040"/>
</linearGradient>
<linearGradient id="paint9_linear" x1="204.5" y1="119" x2="256.5" y2="119" gradientUnits="userSpaceOnUse">
<stop stop-color="#BA6598"/>
<stop offset="1" stop-color="#404040"/>
</linearGradient>
<linearGradient id="paint10_linear" x1="204.5" y1="119" x2="256.5" y2="119" gradientUnits="userSpaceOnUse">
<stop stop-color="#BA6598"/>
<stop offset="1" stop-color="#404040"/>
</linearGradient>
<linearGradient id="paint11_linear" x1="204.5" y1="119" x2="256.5" y2="119" gradientUnits="userSpaceOnUse">
<stop stop-color="#BA6598"/>
<stop offset="1" stop-color="#404040"/>
</linearGradient>
<linearGradient id="paint12_linear" x1="204.5" y1="119" x2="256.5" y2="119" gradientUnits="userSpaceOnUse">
<stop stop-color="#BA6598"/>
<stop offset="1" stop-color="#404040"/>
</linearGradient>
<linearGradient id="paint13_linear" x1="204.5" y1="119" x2="256.5" y2="119" gradientUnits="userSpaceOnUse">
<stop stop-color="#BA6598"/>
<stop offset="1" stop-color="#404040"/>
</linearGradient>
<linearGradient id="paint14_linear" x1="204.5" y1="119" x2="256.5" y2="119" gradientUnits="userSpaceOnUse">
<stop stop-color="#BA6598"/>
<stop offset="1" stop-color="#404040"/>
</linearGradient>
</defs>
</svg>
