<?xml version="1.0" encoding="UTF-8" standalone="no"?>
<!DOCTYPE svg PUBLIC "-//W3C//DTD SVG 1.1//EN"
 "http://www.w3.org/Graphics/SVG/1.1/DTD/svg11.dtd">
<!-- Generated by graphviz version 2.40.1 (20161225.0304)
 -->
<!-- Title: Gemfile Pages: 1 -->
<svg width="1030pt" height="667pt"
 viewBox="0.00 0.00 1030.08 667.29" xmlns="http://www.w3.org/2000/svg" xmlns:xlink="http://www.w3.org/1999/xlink">
<g id="graph0" class="graph" transform="scale(1 1) rotate(0) translate(4 663.2935)">
<title>Gemfile</title>
<polygon fill="#ffffff" stroke="transparent" points="-4,4 -4,-663.2935 1026.0774,-663.2935 1026.0774,4 -4,4"/>
<!-- default -->
<g id="node1" class="node">
<title>default</title>
<polygon fill="#b9b9d5" stroke="#000000" points="191.6782,-651.8377 131.6001,-651.8377 127.6001,-647.8377 127.6001,-615.8377 187.6782,-615.8377 191.6782,-619.8377 191.6782,-651.8377"/>
<polyline fill="none" stroke="#000000" points="187.6782,-647.8377 127.6001,-647.8377 "/>
<polyline fill="none" stroke="#000000" points="187.6782,-647.8377 187.6782,-615.8377 "/>
<polyline fill="none" stroke="#000000" points="187.6782,-647.8377 191.6782,-651.8377 "/>
<text text-anchor="middle" x="159.6392" y="-629.0377" font-family="Arial, Helvetica, SansSerif" font-size="16.00" fill="#000000">default</text>
</g>
<!-- stimulus_reflex -->
<g id="node2" class="node">
<title>stimulus_reflex</title>
<ellipse fill="#b9b9d5" stroke="#000000" cx="308.6392" cy="-633.8377" rx="77.1662" ry="25.4118"/>
<text text-anchor="middle" x="308.6392" y="-636.6377" font-family="Arial, Helvetica, SansSerif" font-size="14.00" fill="#000000">stimulus_reflex</text>
<text text-anchor="middle" x="308.6392" y="-622.6377" font-family="Arial, Helvetica, SansSerif" font-size="14.00" fill="#000000">0.3.2</text>
</g>
<!-- default&#45;&gt;stimulus_reflex -->
<g id="edge1" class="edge">
<title>default&#45;&gt;stimulus_reflex</title>
<path fill="none" stroke="#000000" d="M191.9419,-633.8377C201.6406,-633.8377 211.3392,-633.8377 221.0379,-633.8377"/>
<polygon fill="#000000" stroke="#000000" points="221.1449,-637.3378 231.1449,-633.8377 221.1449,-630.3378 221.1449,-637.3378"/>
</g>
<!-- rack -->
<g id="node3" class="node">
<title>rack</title>
<ellipse fill="none" stroke="#000000" cx="125.6392" cy="-286.1909" rx="33.1636" ry="25.4118"/>
<text text-anchor="middle" x="125.6392" y="-288.9909" font-family="Arial, Helvetica, SansSerif" font-size="14.00" fill="#000000">rack</text>
<text text-anchor="middle" x="125.6392" y="-274.9909" font-family="Arial, Helvetica, SansSerif" font-size="14.00" fill="#000000">2.0.6</text>
</g>
<!-- stimulus_reflex&#45;&gt;rack -->
<g id="edge2" class="edge">
<title>stimulus_reflex&#45;&gt;rack</title>
<path fill="none" stroke="#000000" d="M309.9067,-608.2976C310.457,-590.9489 310.5945,-567.505 308.6392,-546.926"/>
<path fill="none" stroke="#000000" d="M308.6392,-546.926C304.4314,-502.6414 263.2196,-514.6452 229.6392,-485.4701 175.4548,-438.3942 140.4268,-439.6947 113.6392,-373.1026"/>
<path fill="none" stroke="#000000" d="M113.6392,-373.1026C106.0251,-356.7504 108.0231,-336.9289 112.3698,-320.347"/>
<polygon fill="#000000" stroke="#000000" points="115.8023,-321.0847 115.3147,-310.5011 109.0959,-319.0787 115.8023,-321.0847"/>
</g>
<!-- nokogiri -->
<g id="node4" class="node">
<title>nokogiri</title>
<ellipse fill="none" stroke="#000000" cx="954.6392" cy="-112.3675" rx="45.9626" ry="25.4118"/>
<text text-anchor="middle" x="954.6392" y="-115.1675" font-family="Arial, Helvetica, SansSerif" font-size="14.00" fill="#000000">nokogiri</text>
<text text-anchor="middle" x="954.6392" y="-101.1675" font-family="Arial, Helvetica, SansSerif" font-size="14.00" fill="#000000">1.10.2</text>
</g>
<!-- stimulus_reflex&#45;&gt;nokogiri -->
<g id="edge3" class="edge">
<title>stimulus_reflex&#45;&gt;nokogiri</title>
<path fill="none" stroke="#000000" d="M308.6392,-546.926C308.7647,-536.0192 459.6742,-438.9939 469.6392,-434.5584 534.2504,-405.7997 558.6218,-423.9234 624.6392,-398.5584 668.2623,-381.7977 672.5765,-363.2154 716.6392,-347.6468 803.8601,-316.8289 850.7316,-371.0551 921.6392,-311.6468 962.3889,-277.5055 936.2525,-245.4301 962.6392,-199.2792"/>
</g>
<!-- actioncable -->
<g id="node5" class="node">
<title>actioncable</title>
<ellipse fill="none" stroke="#000000" cx="476.6392" cy="-546.926" rx="61.2923" ry="25.4118"/>
<text text-anchor="middle" x="476.6392" y="-549.726" font-family="Arial, Helvetica, SansSerif" font-size="14.00" fill="#000000">actioncable</text>
<text text-anchor="middle" x="476.6392" y="-535.726" font-family="Arial, Helvetica, SansSerif" font-size="14.00" fill="#000000">5.2.2.1</text>
</g>
<!-- stimulus_reflex&#45;&gt;actioncable -->
<g id="edge4" class="edge">
<title>stimulus_reflex&#45;&gt;actioncable</title>
<path fill="none" stroke="#000000" d="M350.1673,-612.3539C374.1387,-599.9527 404.3725,-584.3118 429.2682,-571.4325"/>
<polygon fill="#000000" stroke="#000000" points="430.9036,-574.5271 438.1772,-566.8235 427.6872,-568.3098 430.9036,-574.5271"/>
</g>
<!-- actionpack -->
<g id="node6" class="node">
<title>actionpack</title>
<ellipse fill="none" stroke="#000000" cx="308.6392" cy="-460.0143" rx="58.782" ry="25.4118"/>
<text text-anchor="middle" x="308.6392" y="-462.8143" font-family="Arial, Helvetica, SansSerif" font-size="14.00" fill="#000000">actionpack</text>
<text text-anchor="middle" x="308.6392" y="-448.8143" font-family="Arial, Helvetica, SansSerif" font-size="14.00" fill="#000000">5.2.2.1</text>
</g>
<!-- stimulus_reflex&#45;&gt;actionpack -->
<g id="edge5" class="edge">
<title>stimulus_reflex&#45;&gt;actionpack</title>
<path fill="none" stroke="#000000" d="M308.6392,-546.926C307.0504,-530.2055 306.8433,-511.5938 307.1167,-495.8968"/>
<polygon fill="#000000" stroke="#000000" points="310.624,-495.6376 307.3716,-485.5543 303.6262,-495.465 310.624,-495.6376"/>
</g>
<!-- cable_ready -->
<g id="node7" class="node">
<title>cable_ready</title>
<ellipse fill="none" stroke="#000000" cx="144.6392" cy="-546.926" rx="65.4981" ry="25.4118"/>
<text text-anchor="middle" x="144.6392" y="-549.726" font-family="Arial, Helvetica, SansSerif" font-size="14.00" fill="#000000">cable_ready</text>
<text text-anchor="middle" x="144.6392" y="-535.726" font-family="Arial, Helvetica, SansSerif" font-size="14.00" fill="#000000">3.0.0</text>
</g>
<!-- stimulus_reflex&#45;&gt;cable_ready -->
<g id="edge6" class="edge">
<title>stimulus_reflex&#45;&gt;cable_ready</title>
<path fill="none" stroke="#000000" d="M267.6781,-612.1304C244.7956,-600.0038 216.1685,-584.8329 192.2867,-572.1768"/>
<polygon fill="#000000" stroke="#000000" points="193.8629,-569.051 183.388,-567.4609 190.585,-575.2361 193.8629,-569.051"/>
</g>
<!-- mini_portile2 -->
<g id="node8" class="node">
<title>mini_portile2</title>
<ellipse fill="none" stroke="#000000" cx="954.6392" cy="-25.4558" rx="67.3765" ry="25.4118"/>
<text text-anchor="middle" x="954.6392" y="-28.2558" font-family="Arial, Helvetica, SansSerif" font-size="14.00" fill="#000000">mini_portile2</text>
<text text-anchor="middle" x="954.6392" y="-14.2558" font-family="Arial, Helvetica, SansSerif" font-size="14.00" fill="#000000">2.4.0</text>
</g>
<!-- nokogiri&#45;&gt;mini_portile2 -->
<g id="edge7" class="edge">
<title>nokogiri&#45;&gt;mini_portile2</title>
<path fill="none" stroke="#000000" d="M954.6392,-86.7612C954.6392,-78.7873 954.6392,-69.8428 954.6392,-61.303"/>
<polygon fill="#000000" stroke="#000000" points="958.1393,-61.1794 954.6392,-51.1795 951.1393,-61.1795 958.1393,-61.1794"/>
</g>
<!-- actioncable&#45;&gt;actionpack -->
<g id="edge8" class="edge">
<title>actioncable&#45;&gt;actionpack</title>
<path fill="none" stroke="#000000" d="M438.0966,-526.9867C413.4861,-514.2549 381.426,-497.6692 355.3681,-484.1886"/>
<polygon fill="#000000" stroke="#000000" points="356.9135,-481.0475 346.4234,-479.5613 353.6971,-487.2648 356.9135,-481.0475"/>
</g>
<!-- nio4r -->
<g id="node9" class="node">
<title>nio4r</title>
<ellipse fill="none" stroke="#000000" cx="522.6392" cy="-460.0143" rx="33.1636" ry="25.4118"/>
<text text-anchor="middle" x="522.6392" y="-462.8143" font-family="Arial, Helvetica, SansSerif" font-size="14.00" fill="#000000">nio4r</text>
<text text-anchor="middle" x="522.6392" y="-448.8143" font-family="Arial, Helvetica, SansSerif" font-size="14.00" fill="#000000">2.3.1</text>
</g>
<!-- actioncable&#45;&gt;nio4r -->
<g id="edge9" class="edge">
<title>actioncable&#45;&gt;nio4r</title>
<path fill="none" stroke="#000000" d="M489.9443,-521.7875C494.73,-512.7455 500.2011,-502.4084 505.281,-492.8106"/>
<polygon fill="#000000" stroke="#000000" points="508.4117,-494.3773 509.9963,-483.9016 502.2249,-491.1027 508.4117,-494.3773"/>
</g>
<!-- websocket&#45;driver -->
<g id="node10" class="node">
<title>websocket&#45;driver</title>
<ellipse fill="none" stroke="#000000" cx="775.6392" cy="-460.0143" rx="86.2705" ry="25.4118"/>
<text text-anchor="middle" x="775.6392" y="-462.8143" font-family="Arial, Helvetica, SansSerif" font-size="14.00" fill="#000000">websocket&#45;driver</text>
<text text-anchor="middle" x="775.6392" y="-448.8143" font-family="Arial, Helvetica, SansSerif" font-size="14.00" fill="#000000">0.7.0</text>
</g>
<!-- actioncable&#45;&gt;websocket&#45;driver -->
<g id="edge10" class="edge">
<title>actioncable&#45;&gt;websocket&#45;driver</title>
<path fill="none" stroke="#000000" d="M527.0223,-532.2809C575.6937,-518.1334 649.8742,-496.571 704.545,-480.6796"/>
<polygon fill="#000000" stroke="#000000" points="705.5462,-484.0335 714.1718,-477.8813 703.5923,-477.3117 705.5462,-484.0335"/>
</g>
<!-- actionpack&#45;&gt;rack -->
<g id="edge12" class="edge">
<title>actionpack&#45;&gt;rack</title>
<path fill="none" stroke="#000000" d="M258.9919,-446.3605C205.1293,-430.2215 125.2239,-401.9014 113.6392,-373.1026"/>
</g>
<!-- activesupport -->
<g id="node11" class="node">
<title>activesupport</title>
<ellipse fill="none" stroke="#000000" cx="219.6392" cy="-199.2792" rx="70.3875" ry="25.4118"/>
<text text-anchor="middle" x="219.6392" y="-202.0792" font-family="Arial, Helvetica, SansSerif" font-size="14.00" fill="#000000">activesupport</text>
<text text-anchor="middle" x="219.6392" y="-188.0792" font-family="Arial, Helvetica, SansSerif" font-size="14.00" fill="#000000">5.2.2.1</text>
</g>
<!-- actionpack&#45;&gt;activesupport -->
<g id="edge11" class="edge">
<title>actionpack&#45;&gt;activesupport</title>
<path fill="none" stroke="#000000" d="M219.6392,-286.1909C210.3165,-271.0939 209.5586,-251.5279 211.4641,-234.7841"/>
<polygon fill="#000000" stroke="#000000" points="214.9416,-235.193 212.9419,-224.7886 208.0168,-234.1691 214.9416,-235.193"/>
<path fill="none" stroke="#000000" d="M310.0455,-434.2784C310.2256,-410.3764 307.5448,-374.531 292.6392,-347.6468 272.0744,-310.5554 241.9224,-322.276 219.6392,-286.1909"/>
</g>
<!-- rack&#45;test -->
<g id="node12" class="node">
<title>rack&#45;test</title>
<ellipse fill="none" stroke="#000000" cx="223.6392" cy="-373.1026" rx="49.0375" ry="25.4118"/>
<text text-anchor="middle" x="223.6392" y="-375.9026" font-family="Arial, Helvetica, SansSerif" font-size="14.00" fill="#000000">rack&#45;test</text>
<text text-anchor="middle" x="223.6392" y="-361.9026" font-family="Arial, Helvetica, SansSerif" font-size="14.00" fill="#000000">1.1.0</text>
</g>
<!-- actionpack&#45;&gt;rack&#45;test -->
<g id="edge13" class="edge">
<title>actionpack&#45;&gt;rack&#45;test</title>
<path fill="none" stroke="#000000" d="M285.4126,-436.2653C275.4281,-426.0563 263.6432,-414.0063 253.0578,-403.1829"/>
<polygon fill="#000000" stroke="#000000" points="255.4523,-400.6255 245.958,-395.9234 250.4478,-405.5199 255.4523,-400.6255"/>
</g>
<!-- rails&#45;html&#45;sanitizer -->
<g id="node13" class="node">
<title>rails&#45;html&#45;sanitizer</title>
<ellipse fill="none" stroke="#000000" cx="809.6392" cy="-286.1909" rx="91.743" ry="25.4118"/>
<text text-anchor="middle" x="809.6392" y="-288.9909" font-family="Arial, Helvetica, SansSerif" font-size="14.00" fill="#000000">rails&#45;html&#45;sanitizer</text>
<text text-anchor="middle" x="809.6392" y="-274.9909" font-family="Arial, Helvetica, SansSerif" font-size="14.00" fill="#000000">1.0.4</text>
</g>
<!-- actionpack&#45;&gt;rails&#45;html&#45;sanitizer -->
<g id="edge14" class="edge">
<title>actionpack&#45;&gt;rails&#45;html&#45;sanitizer</title>
<path fill="none" stroke="#000000" d="M593.6392,-373.1026C616.0295,-361.2515 621.4029,-357.739 644.6392,-347.6468 676.2639,-333.9111 712.0519,-320.3491 742.1953,-309.4741"/>
<polygon fill="#000000" stroke="#000000" points="743.5393,-312.7105 751.7714,-306.0408 741.1769,-306.1211 743.5393,-312.7105"/>
</g>
<!-- rails&#45;dom&#45;testing -->
<g id="node14" class="node">
<title>rails&#45;dom&#45;testing</title>
<ellipse fill="none" stroke="#000000" cx="593.6392" cy="-286.1909" rx="84.464" ry="25.4118"/>
<text text-anchor="middle" x="593.6392" y="-288.9909" font-family="Arial, Helvetica, SansSerif" font-size="14.00" fill="#000000">rails&#45;dom&#45;testing</text>
<text text-anchor="middle" x="593.6392" y="-274.9909" font-family="Arial, Helvetica, SansSerif" font-size="14.00" fill="#000000">2.0.3</text>
</g>
<!-- actionpack&#45;&gt;rails&#45;dom&#45;testing -->
<g id="edge15" class="edge">
<title>actionpack&#45;&gt;rails&#45;dom&#45;testing</title>
<path fill="none" stroke="#000000" d="M357.5684,-445.8841C370.5811,-442.1633 384.6339,-438.1782 397.6392,-434.5584 485.5889,-410.0791 512.9518,-415.8101 593.6392,-373.1026"/>
<path fill="none" stroke="#000000" d="M593.6392,-373.1026C611.0942,-363.8637 610.7005,-341.3531 606.1466,-321.5568"/>
<polygon fill="#000000" stroke="#000000" points="609.5112,-320.5901 603.5482,-311.8326 602.7484,-322.3972 609.5112,-320.5901"/>
</g>
<!-- actionview -->
<g id="node15" class="node">
<title>actionview</title>
<ellipse fill="none" stroke="#000000" cx="452.6392" cy="-373.1026" rx="57.5678" ry="25.4118"/>
<text text-anchor="middle" x="452.6392" y="-375.9026" font-family="Arial, Helvetica, SansSerif" font-size="14.00" fill="#000000">actionview</text>
<text text-anchor="middle" x="452.6392" y="-361.9026" font-family="Arial, Helvetica, SansSerif" font-size="14.00" fill="#000000">5.2.2.1</text>
</g>
<!-- actionpack&#45;&gt;actionview -->
<g id="edge16" class="edge">
<title>actionpack&#45;&gt;actionview</title>
<path fill="none" stroke="#000000" d="M343.1308,-439.1968C363.0792,-427.1568 388.3573,-411.9001 409.5996,-399.0793"/>
<polygon fill="#000000" stroke="#000000" points="411.6761,-401.9141 418.429,-393.7502 408.059,-395.9211 411.6761,-401.9141"/>
</g>
<!-- cable_ready&#45;&gt;activesupport -->
<g id="edge17" class="edge">
<title>cable_ready&#45;&gt;activesupport</title>
<path fill="none" stroke="#000000" d="M126.293,-522.1168C89.8631,-469.5667 16.5607,-344.9616 72.6392,-260.7351 89.1636,-235.9164 117.8342,-221.1025 145.4928,-212.2682"/>
<polygon fill="#000000" stroke="#000000" points="146.6199,-215.5847 155.2123,-209.3862 144.6298,-208.8735 146.6199,-215.5847"/>
</g>
<!-- websocket&#45;extensions -->
<g id="node16" class="node">
<title>websocket&#45;extensions</title>
<ellipse fill="none" stroke="#000000" cx="845.6392" cy="-373.1026" rx="108.9178" ry="25.4118"/>
<text text-anchor="middle" x="845.6392" y="-375.9026" font-family="Arial, Helvetica, SansSerif" font-size="14.00" fill="#000000">websocket&#45;extensions</text>
<text text-anchor="middle" x="845.6392" y="-361.9026" font-family="Arial, Helvetica, SansSerif" font-size="14.00" fill="#000000">0.1.3</text>
</g>
<!-- websocket&#45;driver&#45;&gt;websocket&#45;extensions -->
<g id="edge18" class="edge">
<title>websocket&#45;driver&#45;&gt;websocket&#45;extensions</title>
<path fill="none" stroke="#000000" d="M795.8861,-434.8758C803.1415,-425.8675 811.4323,-415.5737 819.1381,-406.0062"/>
<polygon fill="#000000" stroke="#000000" points="821.8909,-408.1681 825.4378,-398.1846 816.4393,-403.7772 821.8909,-408.1681"/>
</g>
<!-- i18n -->
<g id="node17" class="node">
<title>i18n</title>
<ellipse fill="none" stroke="#000000" cx="165.6392" cy="-112.3675" rx="33.1636" ry="25.4118"/>
<text text-anchor="middle" x="165.6392" y="-115.1675" font-family="Arial, Helvetica, SansSerif" font-size="14.00" fill="#000000">i18n</text>
<text text-anchor="middle" x="165.6392" y="-101.1675" font-family="Arial, Helvetica, SansSerif" font-size="14.00" fill="#000000">1.6.0</text>
</g>
<!-- activesupport&#45;&gt;i18n -->
<g id="edge19" class="edge">
<title>activesupport&#45;&gt;i18n</title>
<path fill="none" stroke="#000000" d="M204.0201,-174.1408C198.2011,-164.7752 191.5189,-154.0202 185.3779,-144.1366"/>
<polygon fill="#000000" stroke="#000000" points="188.1813,-142.0165 179.9308,-135.3696 182.2355,-145.7107 188.1813,-142.0165"/>
</g>
<!-- tzinfo -->
<g id="node18" class="node">
<title>tzinfo</title>
<ellipse fill="none" stroke="#000000" cx="273.6392" cy="-112.3675" rx="34.9497" ry="25.4118"/>
<text text-anchor="middle" x="273.6392" y="-115.1675" font-family="Arial, Helvetica, SansSerif" font-size="14.00" fill="#000000">tzinfo</text>
<text text-anchor="middle" x="273.6392" y="-101.1675" font-family="Arial, Helvetica, SansSerif" font-size="14.00" fill="#000000">1.2.5</text>
</g>
<!-- activesupport&#45;&gt;tzinfo -->
<g id="edge20" class="edge">
<title>activesupport&#45;&gt;tzinfo</title>
<path fill="none" stroke="#000000" d="M235.2582,-174.1408C241.0295,-164.852 247.65,-154.1965 253.7493,-144.3798"/>
<polygon fill="#000000" stroke="#000000" points="256.8602,-146.0048 259.1648,-135.6636 250.9144,-142.3105 256.8602,-146.0048"/>
</g>
<!-- minitest -->
<g id="node19" class="node">
<title>minitest</title>
<ellipse fill="none" stroke="#000000" cx="393.6392" cy="-112.3675" rx="45.3413" ry="25.4118"/>
<text text-anchor="middle" x="393.6392" y="-115.1675" font-family="Arial, Helvetica, SansSerif" font-size="14.00" fill="#000000">minitest</text>
<text text-anchor="middle" x="393.6392" y="-101.1675" font-family="Arial, Helvetica, SansSerif" font-size="14.00" fill="#000000">5.11.3</text>
</g>
<!-- activesupport&#45;&gt;minitest -->
<g id="edge21" class="edge">
<title>activesupport&#45;&gt;minitest</title>
<path fill="none" stroke="#000000" d="M261.3165,-178.4617C288.2074,-165.0299 323.1131,-147.5948 350.3215,-134.0044"/>
<polygon fill="#000000" stroke="#000000" points="352.2166,-136.9702 359.5987,-129.3705 349.0886,-130.7079 352.2166,-136.9702"/>
</g>
<!-- concurrent&#45;ruby -->
<g id="node20" class="node">
<title>concurrent&#45;ruby</title>
<ellipse fill="none" stroke="#000000" cx="80.6392" cy="-25.4558" rx="80.7786" ry="25.4118"/>
<text text-anchor="middle" x="80.6392" y="-28.2558" font-family="Arial, Helvetica, SansSerif" font-size="14.00" fill="#000000">concurrent&#45;ruby</text>
<text text-anchor="middle" x="80.6392" y="-14.2558" font-family="Arial, Helvetica, SansSerif" font-size="14.00" fill="#000000">1.1.5</text>
</g>
<!-- activesupport&#45;&gt;concurrent&#45;ruby -->
<g id="edge22" class="edge">
<title>activesupport&#45;&gt;concurrent&#45;ruby</title>
<path fill="none" stroke="#000000" d="M170.4592,-180.896C149.9418,-170.979 127.4808,-156.8114 112.6392,-137.8234 95.4468,-115.828 87.4912,-85.0041 83.8099,-61.2023"/>
<polygon fill="#000000" stroke="#000000" points="87.2581,-60.5843 82.4403,-51.1482 80.3222,-61.5292 87.2581,-60.5843"/>
</g>
<!-- rack&#45;test&#45;&gt;rack -->
<g id="edge23" class="edge">
<title>rack&#45;test&#45;&gt;rack</title>
<path fill="none" stroke="#000000" d="M198.6561,-350.9462C185.4775,-339.2587 169.2195,-324.8403 155.3926,-312.5779"/>
<polygon fill="#000000" stroke="#000000" points="157.3781,-309.6606 147.5741,-305.644 152.7335,-314.8978 157.3781,-309.6606"/>
</g>
<!-- loofah -->
<g id="node21" class="node">
<title>loofah</title>
<ellipse fill="none" stroke="#000000" cx="817.6392" cy="-199.2792" rx="38.0731" ry="25.4118"/>
<text text-anchor="middle" x="817.6392" y="-202.0792" font-family="Arial, Helvetica, SansSerif" font-size="14.00" fill="#000000">loofah</text>
<text text-anchor="middle" x="817.6392" y="-188.0792" font-family="Arial, Helvetica, SansSerif" font-size="14.00" fill="#000000">2.2.3</text>
</g>
<!-- rails&#45;html&#45;sanitizer&#45;&gt;loofah -->
<g id="edge24" class="edge">
<title>rails&#45;html&#45;sanitizer&#45;&gt;loofah</title>
<path fill="none" stroke="#000000" d="M811.9962,-260.5846C812.7367,-252.5395 813.5682,-243.5064 814.3606,-234.8978"/>
<polygon fill="#000000" stroke="#000000" points="817.8676,-234.9812 815.299,-224.7025 810.8971,-234.3396 817.8676,-234.9812"/>
</g>
<!-- rails&#45;dom&#45;testing&#45;&gt;nokogiri -->
<g id="edge25" class="edge">
<title>rails&#45;dom&#45;testing&#45;&gt;nokogiri</title>
<path fill="none" stroke="#000000" d="M658.7307,-269.8299C671.6034,-266.7154 685.031,-263.5519 697.6392,-260.7351 815.6338,-234.3737 902.629,-304.2384 962.6392,-199.2792"/>
<path fill="none" stroke="#000000" d="M962.6392,-199.2792C971.4834,-183.8105 970.5144,-164.2143 966.8814,-147.5465"/>
<polygon fill="#000000" stroke="#000000" points="970.2086,-146.4302 964.339,-137.6099 963.4271,-148.1654 970.2086,-146.4302"/>
</g>
<!-- rails&#45;dom&#45;testing&#45;&gt;activesupport -->
<g id="edge26" class="edge">
<title>rails&#45;dom&#45;testing&#45;&gt;activesupport</title>
<path fill="none" stroke="#000000" d="M527.8579,-270.1017C514.8668,-266.9642 501.3285,-263.7226 488.6392,-260.7351 421.037,-244.819 343.7314,-227.2203 289.3936,-214.9492"/>
<polygon fill="#000000" stroke="#000000" points="290.0476,-211.5088 279.5224,-212.7215 288.5066,-218.3371 290.0476,-211.5088"/>
</g>
<!-- actionview&#45;&gt;activesupport -->
<g id="edge27" class="edge">
<title>actionview&#45;&gt;activesupport</title>
<path fill="none" stroke="#000000" d="M404.3995,-359.1382C356.4262,-344.9868 286.3758,-323.5344 260.6392,-311.6468 241.1672,-302.6527 230.9087,-304.4405 219.6392,-286.1909"/>
</g>
<!-- actionview&#45;&gt;rails&#45;html&#45;sanitizer -->
<g id="edge30" class="edge">
<title>actionview&#45;&gt;rails&#45;html&#45;sanitizer</title>
<path fill="none" stroke="#000000" d="M503.4094,-360.7426C562.6732,-346.3148 661.3843,-322.2836 730.6776,-305.4141"/>
<polygon fill="#000000" stroke="#000000" points="731.7913,-308.7453 740.6796,-302.9791 730.1354,-301.9439 731.7913,-308.7453"/>
</g>
<!-- actionview&#45;&gt;rails&#45;dom&#45;testing -->
<g id="edge31" class="edge">
<title>actionview&#45;&gt;rails&#45;dom&#45;testing</title>
<path fill="none" stroke="#000000" d="M486.4122,-352.2851C504.7933,-340.955 527.7957,-326.7765 547.7776,-314.4598"/>
<polygon fill="#000000" stroke="#000000" points="549.749,-317.3561 556.4252,-309.1294 546.0759,-311.3972 549.749,-317.3561"/>
</g>
<!-- builder -->
<g id="node22" class="node">
<title>builder</title>
<ellipse fill="none" stroke="#000000" cx="321.6392" cy="-286.1909" rx="41.0631" ry="25.4118"/>
<text text-anchor="middle" x="321.6392" y="-288.9909" font-family="Arial, Helvetica, SansSerif" font-size="14.00" fill="#000000">builder</text>
<text text-anchor="middle" x="321.6392" y="-274.9909" font-family="Arial, Helvetica, SansSerif" font-size="14.00" fill="#000000">3.2.3</text>
</g>
<!-- actionview&#45;&gt;builder -->
<g id="edge28" class="edge">
<title>actionview&#45;&gt;builder</title>
<path fill="none" stroke="#000000" d="M420.593,-351.8416C401.722,-339.3217 377.7867,-323.4419 358.1837,-310.4363"/>
<polygon fill="#000000" stroke="#000000" points="360.0638,-307.4835 349.796,-304.8715 356.1939,-313.3165 360.0638,-307.4835"/>
</g>
<!-- erubi -->
<g id="node23" class="node">
<title>erubi</title>
<ellipse fill="none" stroke="#000000" cx="435.6392" cy="-286.1909" rx="33.1636" ry="25.4118"/>
<text text-anchor="middle" x="435.6392" y="-288.9909" font-family="Arial, Helvetica, SansSerif" font-size="14.00" fill="#000000">erubi</text>
<text text-anchor="middle" x="435.6392" y="-274.9909" font-family="Arial, Helvetica, SansSerif" font-size="14.00" fill="#000000">1.8.0</text>
</g>
<!-- actionview&#45;&gt;erubi -->
<g id="edge29" class="edge">
<title>actionview&#45;&gt;erubi</title>
<path fill="none" stroke="#000000" d="M447.6306,-347.4963C446.0396,-339.3627 444.2512,-330.2195 442.5507,-321.5258"/>
<polygon fill="#000000" stroke="#000000" points="445.9666,-320.7563 440.612,-311.6142 439.0968,-322.1001 445.9666,-320.7563"/>
</g>
<!-- i18n&#45;&gt;concurrent&#45;ruby -->
<g id="edge32" class="edge">
<title>i18n&#45;&gt;concurrent&#45;ruby</title>
<path fill="none" stroke="#000000" d="M145.4954,-91.7707C135.4274,-81.4763 123.0196,-68.7894 111.7616,-57.2782"/>
<polygon fill="#000000" stroke="#000000" points="114.0599,-54.6225 104.5656,-49.9204 109.0554,-59.5169 114.0599,-54.6225"/>
</g>
<!-- thread_safe -->
<g id="node24" class="node">
<title>thread_safe</title>
<ellipse fill="none" stroke="#000000" cx="273.6392" cy="-25.4558" rx="63.7007" ry="25.4118"/>
<text text-anchor="middle" x="273.6392" y="-28.2558" font-family="Arial, Helvetica, SansSerif" font-size="14.00" fill="#000000">thread_safe</text>
<text text-anchor="middle" x="273.6392" y="-14.2558" font-family="Arial, Helvetica, SansSerif" font-size="14.00" fill="#000000">0.3.6</text>
</g>
<!-- tzinfo&#45;&gt;thread_safe -->
<g id="edge33" class="edge">
<title>tzinfo&#45;&gt;thread_safe</title>
<path fill="none" stroke="#000000" d="M273.6392,-86.7612C273.6392,-78.7873 273.6392,-69.8428 273.6392,-61.303"/>
<polygon fill="#000000" stroke="#000000" points="277.1393,-61.1794 273.6392,-51.1795 270.1393,-61.1795 277.1393,-61.1794"/>
</g>
<!-- loofah&#45;&gt;nokogiri -->
<g id="edge34" class="edge">
<title>loofah&#45;&gt;nokogiri</title>
<path fill="none" stroke="#000000" d="M845.3632,-181.6913C865.5183,-168.9051 893.0786,-151.4211 915.4782,-137.211"/>
<polygon fill="#000000" stroke="#000000" points="917.5269,-140.0562 924.0962,-131.7438 913.7771,-134.1453 917.5269,-140.0562"/>
</g>
<!-- crass -->
<g id="node25" class="node">
<title>crass</title>
<ellipse fill="none" stroke="#000000" cx="817.6392" cy="-112.3675" rx="34.9304" ry="25.4118"/>
<text text-anchor="middle" x="817.6392" y="-115.1675" font-family="Arial, Helvetica, SansSerif" font-size="14.00" fill="#000000">crass</text>
<text text-anchor="middle" x="817.6392" y="-101.1675" font-family="Arial, Helvetica, SansSerif" font-size="14.00" fill="#000000">1.0.4</text>
</g>
<!-- loofah&#45;&gt;crass -->
<g id="edge35" class="edge">
<title>loofah&#45;&gt;crass</title>
<path fill="none" stroke="#000000" d="M817.6392,-173.6729C817.6392,-165.699 817.6392,-156.7545 817.6392,-148.2147"/>
<polygon fill="#000000" stroke="#000000" points="821.1393,-148.0911 817.6392,-138.0911 814.1393,-148.0912 821.1393,-148.0911"/>
</g>
</g>
</svg>
