<?xml version="1.0" encoding="UTF-8" standalone="no"?>
<!DOCTYPE svg PUBLIC "-//W3C//DTD SVG 1.1//EN" "http://www.w3.org/Graphics/SVG/1.1/DTD/svg11.dtd">
<svg width="100%" height="100%" viewBox="0 0 266 267" version="1.1" xmlns="http://www.w3.org/2000/svg" xmlns:xlink="http://www.w3.org/1999/xlink" xml:space="preserve" xmlns:serif="http://www.serif.com/" style="fill-rule:evenodd;clip-rule:evenodd;stroke-linecap:round;stroke-linejoin:round;">
    <g transform="matrix(1,0,0,1,-17.9,-20)">
        <path d="M111.33,274.77C124.126,278.936 137.5,281.059 150.957,281.059C221.176,281.059 278.957,223.277 278.957,153.059C278.957,130.647 273.071,108.623 261.89,89.2" style="fill:none;fill-rule:nonzero;stroke:black;stroke-width:10px;"/>
    </g>
    <g transform="matrix(1,0,0,1,-17.9,-20)">
        <path d="M190.47,31.23C177.704,27.087 164.366,24.977 150.945,24.977C80.699,24.977 22.895,82.781 22.895,153.027C22.895,175.003 28.552,196.613 39.32,215.77" style="fill:none;fill-rule:nonzero;stroke:black;stroke-width:10px;"/>
    </g>
    <circle cx="40" cy="223.51" r="32" style="fill:rgb(217,198,165);stroke:black;stroke-width:10px;"/>
    <circle cx="223.01" cy="42.49" r="32" style="stroke:black;stroke-width:10px;"/>
    <g transform="matrix(0.435787,0,0,0.435787,133,133)">
        <clipPath id="_clip1">
            <ellipse cx="0" cy="0" rx="166.951" ry="165.445"/>
        </clipPath>
        <g clip-path="url(#_clip1)">
            <g transform="matrix(1,0,0,1,-170,-170)">
                <clipPath id="_clip2">
                    <rect x="0" y="0" width="340" height="340"/>
                </clipPath>
                <g clip-path="url(#_clip2)">
                    <g>
                        <path d="M292.4,190.4L270.2,190.4C264.7,190.4 256.3,192.7 251.6,195.5L98.8,285.4C94.1,288.2 85.7,290.5 80.2,290.5L48,290.5L10.2,290.5L0.2,290.5L0.2,330.5C0.2,336 4.7,340.5 10.2,340.5L330.2,340.5C335.7,340.5 340.2,336 340.2,330.5L340.2,290.5L330.2,290.5L292.4,290.5L260.2,290.5C254.7,290.5 246.3,288.2 241.6,285.4L195.8,258.5C191.1,255.7 191.1,251.1 195.8,248.4L217.6,235.6C222.3,232.8 230.1,232.8 234.8,235.6L251.6,245.5C256.3,248.3 264.7,250.6 270.2,250.6L340.2,250.6L340.2,190.6L330.2,190.6L292.4,190.6L292.4,190.4Z" style="fill-rule:nonzero;"/>
                        <path d="M292.4,90.4L270.2,90.4C264.7,90.4 256.3,92.7 251.6,95.5L98.8,185.4C94.1,188.2 85.7,190.5 80.2,190.5L48,190.5L10.2,190.5L0.2,190.5L0.2,250.5L70.2,250.5C75.7,250.5 84.1,248.2 88.8,245.4L241.6,155.5C246.3,152.7 254.7,150.4 260.2,150.4L340.2,150.4L340.2,90.4L330.2,90.4L292.4,90.4Z" style="fill-rule:nonzero;"/>
                        <path d="M330.2,0.4L10.2,0.4C4.7,0.4 0.2,4.9 0.2,10.4L0.2,50.4L80.2,50.4C85.7,50.4 94.1,52.7 98.8,55.5L144.6,82.4C149.3,85.2 149.3,89.8 144.6,92.5L122.8,105.3C118.1,108.1 110.3,108.1 105.6,105.3L88.8,95.4C84.1,92.6 75.7,90.3 70.2,90.3L48,90.3L10.2,90.3L0.2,90.3L0.2,150.3L70.2,150.3C75.7,150.3 84.1,148 88.8,145.2L241.6,55.3C246.3,52.5 254.7,50.2 260.2,50.2L340.2,50.2L340.2,10.2C340.2,4.9 335.7,0.4 330.2,0.4Z" style="fill-rule:nonzero;"/>
                    </g>
                </g>
            </g>
        </g>
    </g>
</svg>
